ISO-10303-21;
HEADER;
FILE_DESCRIPTION(('CATIA V5 STEP Exchange'),'2;1');

FILE_NAME('H:\\DOC-0000408077.stp','2012-09-25T08:14:56+00:00',('none'),('none'),'CATIA Version 5 Release 17 (IN-10)','CATIA V5 STEP AP203','none');

FILE_SCHEMA(('CONFIG_CONTROL_DESIGN'));

ENDSEC;
/* file written by CATIA V5R17 */
DATA;
#5=PRODUCT('PAR-00230138','3D_outline_00013140_A','',(#2)) ;
#1=APPLICATION_CONTEXT('configuration controlled 3D design of mechanical parts and assemblies') ;
#14=PRODUCT_DEFINITION(' ',' ',#6,#3) ;
#16=SECURITY_CLASSIFICATION(' ',' ',#15) ;
#15=SECURITY_CLASSIFICATION_LEVEL('unclassified') ;
#47=CARTESIAN_POINT(' ',(0.,0.,0.)) ;
#52=CARTESIAN_POINT('Axis2P3D Location',(-11.389526248,-2.065,3.015)) ;
#57=CARTESIAN_POINT('Line Origine',(-13.389526248,-3.015,3.015)) ;
#61=CARTESIAN_POINT('Vertex',(-11.389526248,-3.015,3.015)) ;
#63=CARTESIAN_POINT('Vertex',(-15.389526248,-3.015,3.015)) ;
#66=CARTESIAN_POINT('Line Origine',(-11.389526248,-2.54,3.015)) ;
#70=CARTESIAN_POINT('Vertex',(-11.389526248,-2.065,3.015)) ;
#73=CARTESIAN_POINT('Line Origine',(-13.389526248,-2.065,3.015)) ;
#77=CARTESIAN_POINT('Vertex',(-15.389526248,-2.065,3.015)) ;
#80=CARTESIAN_POINT('Line Origine',(-15.389526248,-2.54,3.015)) ;
#92=CARTESIAN_POINT('Axis2P3D Location',(-11.389526248,-3.015,3.015)) ;
#97=CARTESIAN_POINT('Line Origine',(-13.389526248,-3.015,2.065)) ;
#101=CARTESIAN_POINT('Vertex',(-11.389526248,-3.015,2.065)) ;
#103=CARTESIAN_POINT('Vertex',(-15.389526248,-3.015,2.065)) ;
#106=CARTESIAN_POINT('Line Origine',(-11.389526248,-3.015,2.54)) ;
#111=CARTESIAN_POINT('Line Origine',(-15.389526248,-3.015,2.54)) ;
#123=CARTESIAN_POINT('Axis2P3D Location',(-11.389526248,-2.065,2.065)) ;
#128=CARTESIAN_POINT('Line Origine',(-11.389526248,-2.065,2.54)) ;
#132=CARTESIAN_POINT('Vertex',(-11.389526248,-2.065,2.065)) ;
#135=CARTESIAN_POINT('Line Origine',(-13.389526248,-2.065,2.065)) ;
#139=CARTESIAN_POINT('Vertex',(-15.389526248,-2.065,2.065)) ;
#142=CARTESIAN_POINT('Line Origine',(-15.389526248,-2.065,2.54)) ;
#154=CARTESIAN_POINT('Axis2P3D Location',(-15.389526248,-4.89842541529E-016,0.)) ;
#159=CARTESIAN_POINT('Line Origine',(-15.389526248,-2.54,2.065)) ;
#171=CARTESIAN_POINT('Axis2P3D Location',(-11.389526248,-3.015,2.065)) ;
#176=CARTESIAN_POINT('Line Origine',(-11.389526248,-2.54,2.065)) ;
#188=CARTESIAN_POINT('Axis2P3D Location',(-11.389526248,3.175,-3.175)) ;
#193=CARTESIAN_POINT('Line Origine',(-10.612026248,3.175,-3.175)) ;
#197=CARTESIAN_POINT('Vertex',(-11.389526248,3.175,-3.175)) ;
#199=CARTESIAN_POINT('Vertex',(-9.83452624798,3.175,-3.175)) ;
#202=CARTESIAN_POINT('Line Origine',(-11.389526248,3.175,-1.33226762955E-015)) ;
#206=CARTESIAN_POINT('Vertex',(-11.389526248,3.175,3.175)) ;
#209=CARTESIAN_POINT('Line Origine',(-10.612026248,3.175,3.175)) ;
#213=CARTESIAN_POINT('Vertex',(-9.83452624798,3.175,3.175)) ;
#216=CARTESIAN_POINT('Line Origine',(-9.83452624798,3.175,-4.4408920985E-016)) ;
#228=CARTESIAN_POINT('Axis2P3D Location',(-11.389526248,3.175,3.175)) ;
#233=CARTESIAN_POINT('Line Origine',(-11.389526248,4.4408920985E-016,3.175)) ;
#237=CARTESIAN_POINT('Vertex',(-11.389526248,-3.175,3.175)) ;
#240=CARTESIAN_POINT('Line Origine',(-10.612026248,-3.175,3.175)) ;
#244=CARTESIAN_POINT('Vertex',(-9.83452624798,-3.175,3.175)) ;
#247=CARTESIAN_POINT('Line Origine',(-9.83452624798,4.4408920985E-016,3.175)) ;
#259=CARTESIAN_POINT('Axis2P3D Location',(-11.389526248,-3.175,3.175)) ;
#264=CARTESIAN_POINT('Line Origine',(-11.389526248,-3.175,0.)) ;
#268=CARTESIAN_POINT('Vertex',(-11.389526248,-3.175,-3.175)) ;
#271=CARTESIAN_POINT('Line Origine',(-10.612026248,-3.175,-3.175)) ;
#275=CARTESIAN_POINT('Vertex',(-9.83452624798,-3.175,-3.175)) ;
#278=CARTESIAN_POINT('Line Origine',(-9.83452624798,-3.175,0.)) ;
#290=CARTESIAN_POINT('Axis2P3D Location',(-11.389526248,-3.175,-3.175)) ;
#295=CARTESIAN_POINT('Line Origine',(-11.389526248,-4.4408920985E-016,-3.175)) ;
#300=CARTESIAN_POINT('Line Origine',(-9.83452624798,-4.4408920985E-016,-3.175)) ;
#312=CARTESIAN_POINT('Axis2P3D Location',(-11.389526248,-2.065,-3.015)) ;
#317=CARTESIAN_POINT('Line Origine',(-13.389526248,-2.065,-3.015)) ;
#321=CARTESIAN_POINT('Vertex',(-11.389526248,-2.065,-3.015)) ;
#323=CARTESIAN_POINT('Vertex',(-15.389526248,-2.065,-3.015)) ;
#326=CARTESIAN_POINT('Line Origine',(-11.389526248,-2.54,-3.015)) ;
#330=CARTESIAN_POINT('Vertex',(-11.389526248,-3.015,-3.015)) ;
#333=CARTESIAN_POINT('Line Origine',(-13.389526248,-3.015,-3.015)) ;
#337=CARTESIAN_POINT('Vertex',(-15.389526248,-3.015,-3.015)) ;
#340=CARTESIAN_POINT('Line Origine',(-15.389526248,-2.54,-3.015)) ;
#352=CARTESIAN_POINT('Line Origine',(-11.389526248,-3.015,-2.54)) ;
#356=CARTESIAN_POINT('Vertex',(-11.389526248,-3.015,-2.065)) ;
#359=CARTESIAN_POINT('Line Origine',(-13.389526248,-3.015,-2.065)) ;
#363=CARTESIAN_POINT('Vertex',(-15.389526248,-3.015,-2.065)) ;
#366=CARTESIAN_POINT('Line Origine',(-15.389526248,-3.015,-2.54)) ;
#378=CARTESIAN_POINT('Axis2P3D Location',(-11.389526248,-3.015,-2.065)) ;
#383=CARTESIAN_POINT('Line Origine',(-11.389526248,-2.54,-2.065)) ;
#387=CARTESIAN_POINT('Vertex',(-11.389526248,-2.065,-2.065)) ;
#390=CARTESIAN_POINT('Line Origine',(-13.389526248,-2.065,-2.065)) ;
#394=CARTESIAN_POINT('Vertex',(-15.389526248,-2.065,-2.065)) ;
#397=CARTESIAN_POINT('Line Origine',(-15.389526248,-2.54,-2.065)) ;
#409=CARTESIAN_POINT('Line Origine',(-11.389526248,-2.065,-2.54)) ;
#414=CARTESIAN_POINT('Line Origine',(-15.389526248,-2.065,-2.54)) ;
#426=CARTESIAN_POINT('Line Origine',(-13.389526248,2.065,3.015)) ;
#430=CARTESIAN_POINT('Vertex',(-11.389526248,2.065,3.015)) ;
#432=CARTESIAN_POINT('Vertex',(-15.389526248,2.065,3.015)) ;
#435=CARTESIAN_POINT('Line Origine',(-11.389526248,2.54,3.015)) ;
#439=CARTESIAN_POINT('Vertex',(-11.389526248,3.015,3.015)) ;
#442=CARTESIAN_POINT('Line Origine',(-13.389526248,3.015,3.015)) ;
#446=CARTESIAN_POINT('Vertex',(-15.389526248,3.015,3.015)) ;
#449=CARTESIAN_POINT('Line Origine',(-15.389526248,2.54,3.015)) ;
#461=CARTESIAN_POINT('Axis2P3D Location',(-11.389526248,3.015,3.015)) ;
#466=CARTESIAN_POINT('Line Origine',(-11.389526248,3.015,2.54)) ;
#470=CARTESIAN_POINT('Vertex',(-11.389526248,3.015,2.065)) ;
#473=CARTESIAN_POINT('Line Origine',(-13.389526248,3.015,2.065)) ;
#477=CARTESIAN_POINT('Vertex',(-15.389526248,3.015,2.065)) ;
#480=CARTESIAN_POINT('Line Origine',(-15.389526248,3.015,2.54)) ;
#492=CARTESIAN_POINT('Line Origine',(-11.389526248,2.54,2.065)) ;
#496=CARTESIAN_POINT('Vertex',(-11.389526248,2.065,2.065)) ;
#499=CARTESIAN_POINT('Line Origine',(-13.389526248,2.065,2.065)) ;
#503=CARTESIAN_POINT('Vertex',(-15.389526248,2.065,2.065)) ;
#506=CARTESIAN_POINT('Line Origine',(-15.389526248,2.54,2.065)) ;
#518=CARTESIAN_POINT('Axis2P3D Location',(-11.389526248,2.065,2.065)) ;
#523=CARTESIAN_POINT('Line Origine',(-11.389526248,2.065,2.54)) ;
#528=CARTESIAN_POINT('Line Origine',(-15.389526248,2.065,2.54)) ;
#540=CARTESIAN_POINT('Line Origine',(-13.389526248,3.015,-2.065)) ;
#544=CARTESIAN_POINT('Vertex',(-11.389526248,3.015,-2.065)) ;
#546=CARTESIAN_POINT('Vertex',(-15.389526248,3.015,-2.065)) ;
#549=CARTESIAN_POINT('Line Origine',(-11.389526248,3.015,-2.54)) ;
#553=CARTESIAN_POINT('Vertex',(-11.389526248,3.015,-3.015)) ;
#556=CARTESIAN_POINT('Line Origine',(-13.389526248,3.015,-3.015)) ;
#560=CARTESIAN_POINT('Vertex',(-15.389526248,3.015,-3.015)) ;
#563=CARTESIAN_POINT('Line Origine',(-15.389526248,3.015,-2.54)) ;
#575=CARTESIAN_POINT('Line Origine',(-11.389526248,2.54,-3.015)) ;
#579=CARTESIAN_POINT('Vertex',(-11.389526248,2.065,-3.015)) ;
#582=CARTESIAN_POINT('Line Origine',(-13.389526248,2.065,-3.015)) ;
#586=CARTESIAN_POINT('Vertex',(-15.389526248,2.065,-3.015)) ;
#589=CARTESIAN_POINT('Line Origine',(-15.389526248,2.54,-3.015)) ;
#601=CARTESIAN_POINT('Line Origine',(-11.389526248,2.065,-2.54)) ;
#605=CARTESIAN_POINT('Vertex',(-11.389526248,2.065,-2.065)) ;
#608=CARTESIAN_POINT('Line Origine',(-13.389526248,2.065,-2.065)) ;
#612=CARTESIAN_POINT('Vertex',(-15.389526248,2.065,-2.065)) ;
#615=CARTESIAN_POINT('Line Origine',(-15.389526248,2.065,-2.54)) ;
#627=CARTESIAN_POINT('Line Origine',(-11.389526248,2.54,-2.065)) ;
#632=CARTESIAN_POINT('Line Origine',(-15.389526248,2.54,-2.065)) ;
#644=CARTESIAN_POINT('Axis2P3D Location',(-9.83452624798,1.90426288019E-016,5.)) ;
#655=CARTESIAN_POINT('Axis2P3D Location',(-9.83452624798,1.90426288019E-016,0.)) ;
#659=CARTESIAN_POINT('Vertex',(-9.83452624798,-1.28246331577,-2.34753335306)) ;
#661=CARTESIAN_POINT('Vertex',(-9.83452624798,1.28246331577,2.34753335306)) ;
#664=CARTESIAN_POINT('Axis2P3D Location',(-9.83452624798,1.90426288019E-016,0.)) ;
#695=CARTESIAN_POINT('Axis2P3D Location',(-6.61202624797,5.8505568554E-016,0.)) ;
#700=CARTESIAN_POINT('Line Origine',(-5.83452624798,-1.28246331577,-2.34753335306)) ;
#704=CARTESIAN_POINT('Vertex',(-6.33452624798,-1.28246331577,-2.34753335306)) ;
#707=CARTESIAN_POINT('Line Origine',(-5.83452624798,1.28246331577,2.34753335306)) ;
#711=CARTESIAN_POINT('Vertex',(-6.33452624798,1.28246331577,2.34753335306)) ;
#714=CARTESIAN_POINT('Axis2P3D Location',(-6.33452624798,6.19038511857E-016,0.)) ;
#726=CARTESIAN_POINT('Axis2P3D Location',(-6.33452624798,6.19038511857E-016,0.)) ;
#738=CARTESIAN_POINT('Axis2P3D Location',(-6.33452624798,6.19038511857E-016,0.)) ;
#743=CARTESIAN_POINT('Line Origine',(-6.20390074957,-1.39093334388,-2.54608640768)) ;
#747=CARTESIAN_POINT('Vertex',(-6.07327525117,-1.49940337198,-2.74463946231)) ;
#750=CARTESIAN_POINT('Line Origine',(-6.20390074957,1.39093334388,2.54608640768)) ;
#754=CARTESIAN_POINT('Vertex',(-6.07327525117,1.49940337198,2.74463946231)) ;
#757=CARTESIAN_POINT('Axis2P3D Location',(-6.07327525117,6.51031474921E-016,0.)) ;
#769=CARTESIAN_POINT('Axis2P3D Location',(-6.07327525117,6.51031474921E-016,0.)) ;
#781=CARTESIAN_POINT('Axis2P3D Location',(-6.61202624797,5.8505568554E-016,0.)) ;
#786=CARTESIAN_POINT('Line Origine',(-4.48452624798,-1.49940337198,-2.74463946231)) ;
#790=CARTESIAN_POINT('Vertex',(-2.89577724479,-1.49940337198,-2.74463946231)) ;
#793=CARTESIAN_POINT('Line Origine',(-4.48452624798,1.49940337198,2.74463946231)) ;
#797=CARTESIAN_POINT('Vertex',(-2.89577724479,1.49940337198,2.74463946231)) ;
#800=CARTESIAN_POINT('Axis2P3D Location',(-2.89577724479,1.04014989971E-015,0.)) ;
#812=CARTESIAN_POINT('Axis2P3D Location',(-2.89577724479,1.04014989971E-015,0.)) ;
#824=CARTESIAN_POINT('Axis2P3D Location',(-2.63452624798,1.07214286277E-015,0.)) ;
#829=CARTESIAN_POINT('Line Origine',(-2.76515174638,-1.39093334388,-2.54608640768)) ;
#833=CARTESIAN_POINT('Vertex',(-2.63452624798,-1.28246331577,-2.34753335306)) ;
#836=CARTESIAN_POINT('Line Origine',(-2.76515174638,1.39093334388,2.54608640768)) ;
#840=CARTESIAN_POINT('Vertex',(-2.63452624798,1.28246331577,2.34753335306)) ;
#843=CARTESIAN_POINT('Axis2P3D Location',(-2.63452624798,1.07214286277E-015,0.)) ;
#855=CARTESIAN_POINT('Axis2P3D Location',(-2.63452624798,1.07214286277E-015,0.)) ;
#867=CARTESIAN_POINT('Line Origine',(-5.83452624798,-1.28246331577,-2.34753335306)) ;
#871=CARTESIAN_POINT('Vertex',(-1.83452624798,-1.28246331577,-2.34753335306)) ;
#874=CARTESIAN_POINT('Line Origine',(-5.83452624798,1.28246331577,2.34753335306)) ;
#878=CARTESIAN_POINT('Vertex',(-1.83452624798,1.28246331577,2.34753335306)) ;
#881=CARTESIAN_POINT('Axis2P3D Location',(-1.83452624798,1.17011137108E-015,0.)) ;
#893=CARTESIAN_POINT('Axis2P3D Location',(-1.83452624798,1.17011137108E-015,0.)) ;
#905=CARTESIAN_POINT('Axis2P3D Location',(-1.83452624798,1.17011137108E-015,2.675)) ;
#914=CARTESIAN_POINT('Axis2P3D Location',(-1.83452624798,1.17011137108E-015,0.)) ;
#918=CARTESIAN_POINT('Vertex',(-1.83452624798,-1.11466437725,-2.0403794564)) ;
#920=CARTESIAN_POINT('Vertex',(-1.83452624798,1.11466437725,2.0403794564)) ;
#923=CARTESIAN_POINT('Axis2P3D Location',(-1.83452624798,1.17011137108E-015,0.)) ;
#933=CARTESIAN_POINT('Axis2P3D Location',(-6.61202624797,5.8505568554E-016,0.)) ;
#938=CARTESIAN_POINT('Line Origine',(-2.79952624798,-1.11466437725,-2.0403794564)) ;
#942=CARTESIAN_POINT('Vertex',(-3.76452624798,-1.11466437725,-2.0403794564)) ;
#945=CARTESIAN_POINT('Line Origine',(-2.79952624798,1.11466437725,2.0403794564)) ;
#949=CARTESIAN_POINT('Vertex',(-3.76452624798,1.11466437725,2.0403794564)) ;
#952=CARTESIAN_POINT('Axis2P3D Location',(-3.76452624798,9.3376234479E-016,0.)) ;
#964=CARTESIAN_POINT('Axis2P3D Location',(-3.76452624798,9.3376234479E-016,0.)) ;
#976=CARTESIAN_POINT('Axis2P3D Location',(-3.76452624798,9.3376234479E-016,2.325)) ;
#985=CARTESIAN_POINT('Axis2P3D Location',(-3.76452624798,9.3376234479E-016,0.)) ;
#989=CARTESIAN_POINT('Vertex',(-3.76452624798,-0.987616609525,-1.80782007749)) ;
#991=CARTESIAN_POINT('Vertex',(-3.76452624798,0.987616609525,1.80782007749)) ;
#994=CARTESIAN_POINT('Axis2P3D Location',(-3.76452624798,9.3376234479E-016,0.)) ;
#1004=CARTESIAN_POINT('Axis2P3D Location',(-6.61202624797,5.8505568554E-016,0.)) ;
#1009=CARTESIAN_POINT('Axis2P3D Location',(-3.88952624798,9.18454765367E-016,0.)) ;
#1013=CARTESIAN_POINT('Vertex',(-3.88952624798,-0.987616609525,-1.80782007749)) ;
#1015=CARTESIAN_POINT('Vertex',(-3.88952624798,0.987616609525,1.80782007749)) ;
#1018=CARTESIAN_POINT('Line Origine',(-7.57702624798,-0.987616609525,-1.80782007749)) ;
#1023=CARTESIAN_POINT('Line Origine',(-7.57702624798,0.987616609525,1.80782007749)) ;
#1035=CARTESIAN_POINT('Axis2P3D Location',(-3.88952624798,9.18454765367E-016,0.)) ;
#1047=CARTESIAN_POINT('Axis2P3D Location',(-15.254526248,6.49306997058E-016,0.)) ;
#1052=CARTESIAN_POINT('Line Origine',(-15.204526248,0.279265376237,-0.511191842301)) ;
#1056=CARTESIAN_POINT('Vertex',(-15.254526248,0.255294099307,-0.467312714207)) ;
#1058=CARTESIAN_POINT('Vertex',(-15.154526248,0.303236653167,-0.555070970396)) ;
#1061=CARTESIAN_POINT('Axis2P3D Location',(-15.154526248,6.61536797564E-016,0.)) ;
#1065=CARTESIAN_POINT('Vertex',(-15.154526248,-0.303236653167,0.555070970396)) ;
#1068=CARTESIAN_POINT('Line Origine',(-15.204526248,-0.279265376237,0.511191842301)) ;
#1072=CARTESIAN_POINT('Vertex',(-15.254526248,-0.255294099307,0.467312714207)) ;
#1075=CARTESIAN_POINT('Axis2P3D Location',(-15.254526248,6.49306997058E-016,0.)) ;
#1087=CARTESIAN_POINT('Axis2P3D Location',(-15.254526248,6.49306997058E-016,0.5325)) ;
#1092=CARTESIAN_POINT('Axis2P3D Location',(-15.254526248,6.49306997058E-016,0.)) ;
#1102=CARTESIAN_POINT('Axis2P3D Location',(-15.154526248,6.61536797564E-016,0.)) ;
#1114=CARTESIAN_POINT('Axis2P3D Location',(-11.2466987518,1.13945630445E-015,0.)) ;
#1119=CARTESIAN_POINT('Line Origine',(-9.50452624798,-0.303236653167,0.555070970396)) ;
#1123=CARTESIAN_POINT('Vertex',(-11.389526248,-0.303236653167,0.555070970396)) ;
#1126=CARTESIAN_POINT('Line Origine',(-9.50452624798,0.303236653167,-0.555070970396)) ;
#1130=CARTESIAN_POINT('Vertex',(-11.389526248,0.303236653167,-0.555070970396)) ;
#1133=CARTESIAN_POINT('Axis2P3D Location',(-11.389526248,1.1219887866E-015,0.)) ;
#1145=CARTESIAN_POINT('Axis2P3D Location',(-11.389526248,1.1219887866E-015,0.)) ;
#1157=CARTESIAN_POINT('Axis2P3D Location',(-7.23887125555,1.62960561185E-015,0.)) ;
#1162=CARTESIAN_POINT('Line Origine',(-7.09669875177,0.118058538881,-0.216104705866)) ;
#1166=CARTESIAN_POINT('Vertex',(-6.95452624798,0.236117077763,-0.432209411731)) ;
#1168=CARTESIAN_POINT('Vertex',(-7.23887125555,1.0973363403E-015,9.7431236622E-016)) ;
#1171=CARTESIAN_POINT('Line Origine',(-7.09669875177,-0.118058538881,0.216104705866)) ;
#1175=CARTESIAN_POINT('Vertex',(-6.95452624798,-0.236117077763,0.432209411731)) ;
#1178=CARTESIAN_POINT('Axis2P3D Location',(-6.95452624798,1.66438043903E-015,0.)) ;
#1189=CARTESIAN_POINT('Axis2P3D Location',(-6.95452624798,1.66438043903E-015,0.)) ;
#1200=CARTESIAN_POINT('Axis2P3D Location',(-3.85452624798,2.0435042547E-015,0.56)) ;
#1205=CARTESIAN_POINT('Line Origine',(-3.85452624798,0.125,-0.582948032475)) ;
#1209=CARTESIAN_POINT('Vertex',(-3.85452624798,0.125,-0.620025201101)) ;
#1211=CARTESIAN_POINT('Vertex',(-3.85452624798,0.125,-0.54587086385)) ;
#1214=CARTESIAN_POINT('Axis2P3D Location',(-3.85452624798,2.0435042547E-015,0.)) ;
#1218=CARTESIAN_POINT('Vertex',(-3.85452624798,0.303236653167,-0.555070970396)) ;
#1221=CARTESIAN_POINT('Axis2P3D Location',(-3.85452624798,2.0435042547E-015,0.)) ;
#1225=CARTESIAN_POINT('Vertex',(-3.85452624798,0.125,0.620025201101)) ;
#1228=CARTESIAN_POINT('Line Origine',(-3.85452624798,0.125,0.582948032475)) ;
#1232=CARTESIAN_POINT('Vertex',(-3.85452624798,0.125,0.54587086385)) ;
#1235=CARTESIAN_POINT('Axis2P3D Location',(-3.85452624798,2.0435042547E-015,0.)) ;
#1239=CARTESIAN_POINT('Vertex',(-3.85452624798,0.268478301618,-0.491446234659)) ;
#1242=CARTESIAN_POINT('Axis2P3D Location',(-3.85452624798,2.0435042547E-015,0.)) ;
#1256=CARTESIAN_POINT('Axis2P3D Location',(-3.92202624798,2.03524913936E-015,0.)) ;
#1261=CARTESIAN_POINT('Axis2P3D Location',(-3.88952624798,2.03922382452E-015,0.)) ;
#1265=CARTESIAN_POINT('Vertex',(-3.88952624798,0.125,-0.509901949961)) ;
#1267=CARTESIAN_POINT('Vertex',(-3.88952624798,0.251698407767,-0.460730844992)) ;
#1271=CARTESIAN_POINT('Control Point',(-3.88952624798,0.125000011258,-0.509901948599)) ;
#1272=CARTESIAN_POINT('Control Point',(-3.8786072782,0.125000010462,-0.52114422616)) ;
#1273=CARTESIAN_POINT('Control Point',(-3.86699111947,0.125,-0.53308335586)) ;
#1274=CARTESIAN_POINT('Control Point',(-3.85452624798,0.125,-0.54587086385)) ;
#1276=CARTESIAN_POINT('Line Origine',(-3.88827624798,0.25229768969,-0.461827823195)) ;
#1288=CARTESIAN_POINT('Axis2P3D Location',(-3.88952624798,2.03922382452E-015,0.)) ;
#1292=CARTESIAN_POINT('Vertex',(-3.88952624798,0.125,0.509901949961)) ;
#1296=CARTESIAN_POINT('Control Point',(-3.88952624798,0.125000011258,0.509901948599)) ;
#1297=CARTESIAN_POINT('Control Point',(-3.8786072782,0.125000010462,0.52114422616)) ;
#1298=CARTESIAN_POINT('Control Point',(-3.86699111947,0.125,0.53308335586)) ;
#1299=CARTESIAN_POINT('Control Point',(-3.85452624798,0.125,0.54587086385)) ;
#1308=CARTESIAN_POINT('Axis2P3D Location',(-3.85452624798,0.125,-0.945151150227)) ;
#1313=CARTESIAN_POINT('Line Origine',(-3.87202624798,0.125,0.620025201101)) ;
#1317=CARTESIAN_POINT('Vertex',(-3.88952624798,0.125,0.620025201101)) ;
#1320=CARTESIAN_POINT('Line Origine',(-3.88952624798,0.125,0.564963575531)) ;
#1332=CARTESIAN_POINT('Line Origine',(-9.50452624798,0.303236653167,-0.555070970396)) ;
#1336=CARTESIAN_POINT('Vertex',(-3.88952624798,0.303236653167,-0.555070970396)) ;
#1339=CARTESIAN_POINT('Axis2P3D Location',(-3.88952624798,2.03922382452E-015,0.)) ;
#1351=CARTESIAN_POINT('Line Origine',(-9.50452624798,0.125,-0.620025201101)) ;
#1355=CARTESIAN_POINT('Vertex',(-3.88952624798,0.125,-0.620025201101)) ;
#1358=CARTESIAN_POINT('Axis2P3D Location',(-3.88952624798,2.03922382452E-015,0.)) ;
#1370=CARTESIAN_POINT('Line Origine',(-3.88952624798,0.125,-0.564963575531)) ;
#1382=CARTESIAN_POINT('Axis2P3D Location',(-3.85452624798,2.0435042547E-015,0.)) ;
#1386=CARTESIAN_POINT('Vertex',(-3.85452624798,-0.125,0.620025201101)) ;
#1388=CARTESIAN_POINT('Vertex',(-3.85452624798,-0.303236653167,0.555070970396)) ;
#1391=CARTESIAN_POINT('Axis2P3D Location',(-3.85452624798,2.0435042547E-015,0.)) ;
#1395=CARTESIAN_POINT('Vertex',(-3.85452624798,-0.125,-0.620025201101)) ;
#1398=CARTESIAN_POINT('Line Origine',(-3.85452624798,-0.125,-0.582948032475)) ;
#1402=CARTESIAN_POINT('Vertex',(-3.85452624798,-0.125,-0.54587086385)) ;
#1405=CARTESIAN_POINT('Axis2P3D Location',(-3.85452624798,2.0435042547E-015,0.)) ;
#1409=CARTESIAN_POINT('Vertex',(-3.85452624798,-0.268478301618,0.491446234659)) ;
#1412=CARTESIAN_POINT('Axis2P3D Location',(-3.85452624798,2.0435042547E-015,0.)) ;
#1416=CARTESIAN_POINT('Vertex',(-3.85452624798,-0.125,0.54587086385)) ;
#1419=CARTESIAN_POINT('Line Origine',(-3.85452624798,-0.125,0.582948032475)) ;
#1433=CARTESIAN_POINT('Axis2P3D Location',(-3.85452624798,-0.125,0.957788467407)) ;
#1438=CARTESIAN_POINT('Line Origine',(-3.87202624798,-0.125,0.620025201101)) ;
#1442=CARTESIAN_POINT('Vertex',(-3.88952624798,-0.125,0.620025201101)) ;
#1446=CARTESIAN_POINT('Control Point',(-3.88952624798,-0.125,0.509901949961)) ;
#1447=CARTESIAN_POINT('Control Point',(-3.88297486611,-0.125,0.516647316429)) ;
#1448=CARTESIAN_POINT('Control Point',(-3.87621336243,-0.125,0.523602703564)) ;
#1449=CARTESIAN_POINT('Control Point',(-3.86922845672,-0.125,0.530781391743)) ;
#1450=CARTESIAN_POINT('Control Point',(-3.86200517087,-0.125,0.538198359056)) ;
#1451=CARTESIAN_POINT('Control Point',(-3.85452624798,-0.125,0.54587086385)) ;
#1452=CARTESIAN_POINT('Vertex',(-3.88952624798,-0.125,0.509901949961)) ;
#1455=CARTESIAN_POINT('Line Origine',(-3.88952624798,-0.125,0.564963575531)) ;
#1467=CARTESIAN_POINT('Axis2P3D Location',(-3.88952624798,2.03922382452E-015,0.)) ;
#1471=CARTESIAN_POINT('Vertex',(-3.88952624798,-0.251698407767,0.460730844992)) ;
#1474=CARTESIAN_POINT('Line Origine',(-3.88827624798,-0.25229768969,0.461827823195)) ;
#1486=CARTESIAN_POINT('Axis2P3D Location',(-3.88952624798,2.03922382452E-015,0.)) ;
#1490=CARTESIAN_POINT('Vertex',(-3.88952624798,-0.125,-0.509901949961)) ;
#1494=CARTESIAN_POINT('Control Point',(-3.88952624798,-0.125000011258,-0.509901948599)) ;
#1495=CARTESIAN_POINT('Control Point',(-3.8786072782,-0.125000010462,-0.52114422616)) ;
#1496=CARTESIAN_POINT('Control Point',(-3.86699111947,-0.125,-0.53308335586)) ;
#1497=CARTESIAN_POINT('Control Point',(-3.85452624798,-0.125,-0.54587086385)) ;
#1506=CARTESIAN_POINT('Line Origine',(-3.87202624798,-0.125,-0.620025201101)) ;
#1510=CARTESIAN_POINT('Vertex',(-3.88952624798,-0.125,-0.620025201101)) ;
#1513=CARTESIAN_POINT('Line Origine',(-3.88952624798,-0.125,-0.564963575531)) ;
#1525=CARTESIAN_POINT('Line Origine',(-9.50452624798,-0.303236653167,0.555070970396)) ;
#1529=CARTESIAN_POINT('Vertex',(-3.88952624798,-0.303236653167,0.555070970396)) ;
#1532=CARTESIAN_POINT('Axis2P3D Location',(-3.88952624798,2.03922382452E-015,0.)) ;
#1544=CARTESIAN_POINT('Axis2P3D Location',(-3.88952624798,2.03922382452E-015,0.)) ;
#1556=CARTESIAN_POINT('Axis2P3D Location',(-9.37504637903,0.,0.)) ;
#1561=CARTESIAN_POINT('Line Origine',(-5.62504637903,0.236356790532,-0.432648203012)) ;
#1565=CARTESIAN_POINT('Vertex',(-3.88952624798,0.236356790532,-0.432648203012)) ;
#1568=CARTESIAN_POINT('Line Origine',(-5.62504637903,-0.236356790532,0.432648203012)) ;
#1572=CARTESIAN_POINT('Vertex',(-3.88952624798,-0.236356790532,0.432648203012)) ;
#1575=CARTESIAN_POINT('Axis2P3D Location',(-3.88952624798,0.,0.)) ;
#1587=CARTESIAN_POINT('Axis2P3D Location',(-3.88952624798,0.,0.)) ;
#1599=CARTESIAN_POINT('Axis2P3D Location',(-3.88952624798,1.99059518868E-015,0.6525)) ;
#1629=CARTESIAN_POINT('Axis2P3D Location',(-11.389526248,0.,2.06)) ;
#53=DIRECTION('Axis2P3D Direction',(0.,0.,-1.)) ;
#54=DIRECTION('Axis2P3D XDirection',(1.22460635382E-016,-1.,0.)) ;
#58=DIRECTION('Vector Direction',(-1.,-1.11022302463E-016,0.)) ;
#67=DIRECTION('Vector Direction',(0.,-1.,0.)) ;
#74=DIRECTION('Vector Direction',(-1.,-1.11022302463E-016,0.)) ;
#81=DIRECTION('Vector Direction',(0.,-1.,0.)) ;
#93=DIRECTION('Axis2P3D Direction',(-1.22460635382E-016,1.,0.)) ;
#94=DIRECTION('Axis2P3D XDirection',(0.,0.,-1.)) ;
#98=DIRECTION('Vector Direction',(-1.,-1.11022302463E-016,0.)) ;
#107=DIRECTION('Vector Direction',(0.,0.,-1.)) ;
#112=DIRECTION('Vector Direction',(0.,0.,-1.)) ;
#124=DIRECTION('Axis2P3D Direction',(1.22460635382E-016,-1.,0.)) ;
#125=DIRECTION('Axis2P3D XDirection',(0.,0.,1.)) ;
#129=DIRECTION('Vector Direction',(0.,0.,1.)) ;
#136=DIRECTION('Vector Direction',(-1.,-1.11022302463E-016,0.)) ;
#143=DIRECTION('Vector Direction',(0.,0.,1.)) ;
#155=DIRECTION('Axis2P3D Direction',(-1.,-1.22460635382E-016,0.)) ;
#156=DIRECTION('Axis2P3D XDirection',(1.22460635382E-016,-1.,0.)) ;
#160=DIRECTION('Vector Direction',(0.,1.,0.)) ;
#172=DIRECTION('Axis2P3D Direction',(0.,0.,1.)) ;
#173=DIRECTION('Axis2P3D XDirection',(-1.22460635382E-016,1.,0.)) ;
#177=DIRECTION('Vector Direction',(0.,1.,0.)) ;
#189=DIRECTION('Axis2P3D Direction',(-1.22460635382E-016,1.,0.)) ;
#190=DIRECTION('Axis2P3D XDirection',(0.,0.,1.)) ;
#194=DIRECTION('Vector Direction',(1.,0.,0.)) ;
#203=DIRECTION('Vector Direction',(0.,0.,1.)) ;
#210=DIRECTION('Vector Direction',(1.,0.,0.)) ;
#217=DIRECTION('Vector Direction',(0.,0.,1.)) ;
#229=DIRECTION('Axis2P3D Direction',(0.,0.,1.)) ;
#230=DIRECTION('Axis2P3D XDirection',(1.22460635382E-016,-1.,0.)) ;
#234=DIRECTION('Vector Direction',(0.,-1.,0.)) ;
#241=DIRECTION('Vector Direction',(1.,0.,0.)) ;
#248=DIRECTION('Vector Direction',(2.79741234551E-016,-1.,0.)) ;
#260=DIRECTION('Axis2P3D Direction',(1.22460635382E-016,-1.,0.)) ;
#261=DIRECTION('Axis2P3D XDirection',(0.,0.,-1.)) ;
#265=DIRECTION('Vector Direction',(0.,0.,-1.)) ;
#272=DIRECTION('Vector Direction',(1.,0.,0.)) ;
#279=DIRECTION('Vector Direction',(0.,0.,-1.)) ;
#291=DIRECTION('Axis2P3D Direction',(0.,0.,-1.)) ;
#292=DIRECTION('Axis2P3D XDirection',(-1.22460635382E-016,1.,0.)) ;
#296=DIRECTION('Vector Direction',(0.,1.,0.)) ;
#301=DIRECTION('Vector Direction',(-2.79741234551E-016,1.,0.)) ;
#313=DIRECTION('Axis2P3D Direction',(0.,0.,-1.)) ;
#314=DIRECTION('Axis2P3D XDirection',(1.22460635382E-016,-1.,0.)) ;
#318=DIRECTION('Vector Direction',(-1.,-1.11022302463E-016,0.)) ;
#327=DIRECTION('Vector Direction',(0.,-1.,0.)) ;
#334=DIRECTION('Vector Direction',(-1.,-1.11022302463E-016,0.)) ;
#341=DIRECTION('Vector Direction',(0.,-1.,0.)) ;
#353=DIRECTION('Vector Direction',(0.,0.,1.)) ;
#360=DIRECTION('Vector Direction',(-1.,-1.11022302463E-016,0.)) ;
#367=DIRECTION('Vector Direction',(0.,0.,1.)) ;
#379=DIRECTION('Axis2P3D Direction',(0.,0.,1.)) ;
#380=DIRECTION('Axis2P3D XDirection',(-1.22460635382E-016,1.,0.)) ;
#384=DIRECTION('Vector Direction',(0.,1.,0.)) ;
#391=DIRECTION('Vector Direction',(-1.,-1.11022302463E-016,0.)) ;
#398=DIRECTION('Vector Direction',(0.,1.,0.)) ;
#410=DIRECTION('Vector Direction',(0.,0.,-1.)) ;
#415=DIRECTION('Vector Direction',(0.,0.,-1.)) ;
#427=DIRECTION('Vector Direction',(-1.,-2.22044604925E-016,0.)) ;
#436=DIRECTION('Vector Direction',(0.,1.,0.)) ;
#443=DIRECTION('Vector Direction',(-1.,-2.22044604925E-016,0.)) ;
#450=DIRECTION('Vector Direction',(0.,1.,0.)) ;
#462=DIRECTION('Axis2P3D Direction',(-1.22460635382E-016,1.,0.)) ;
#463=DIRECTION('Axis2P3D XDirection',(0.,0.,-1.)) ;
#467=DIRECTION('Vector Direction',(0.,0.,-1.)) ;
#474=DIRECTION('Vector Direction',(-1.,-1.11022302463E-016,0.)) ;
#481=DIRECTION('Vector Direction',(0.,0.,-1.)) ;
#493=DIRECTION('Vector Direction',(0.,-1.,0.)) ;
#500=DIRECTION('Vector Direction',(-1.,-2.22044604925E-016,0.)) ;
#507=DIRECTION('Vector Direction',(0.,-1.,0.)) ;
#519=DIRECTION('Axis2P3D Direction',(1.22460635382E-016,-1.,0.)) ;
#520=DIRECTION('Axis2P3D XDirection',(0.,0.,1.)) ;
#524=DIRECTION('Vector Direction',(0.,0.,1.)) ;
#529=DIRECTION('Vector Direction',(0.,0.,1.)) ;
#541=DIRECTION('Vector Direction',(-1.,-1.11022302463E-016,0.)) ;
#550=DIRECTION('Vector Direction',(0.,0.,1.)) ;
#557=DIRECTION('Vector Direction',(-1.,-1.11022302463E-016,0.)) ;
#564=DIRECTION('Vector Direction',(0.,0.,1.)) ;
#576=DIRECTION('Vector Direction',(0.,1.,0.)) ;
#583=DIRECTION('Vector Direction',(-1.,-2.22044604925E-016,0.)) ;
#590=DIRECTION('Vector Direction',(0.,1.,0.)) ;
#602=DIRECTION('Vector Direction',(0.,0.,-1.)) ;
#609=DIRECTION('Vector Direction',(-1.,-1.11022302463E-016,0.)) ;
#616=DIRECTION('Vector Direction',(0.,0.,-1.)) ;
#628=DIRECTION('Vector Direction',(0.,-1.,0.)) ;
#633=DIRECTION('Vector Direction',(0.,-1.,0.)) ;
#645=DIRECTION('Axis2P3D Direction',(-1.,-1.22460635382E-016,0.)) ;
#646=DIRECTION('Axis2P3D XDirection',(1.22460635382E-016,-1.,0.)) ;
#656=DIRECTION('Axis2P3D Direction',(-1.,-1.22460635382E-016,0.)) ;
#665=DIRECTION('Axis2P3D Direction',(-1.,-1.22460635382E-016,0.)) ;
#696=DIRECTION('Axis2P3D Direction',(-1.,-1.22460635382E-016,0.)) ;
#697=DIRECTION('Axis2P3D XDirection',(-5.87107560759E-017,0.479425538604,0.87758256189)) ;
#701=DIRECTION('Vector Direction',(-1.,-1.38777878078E-016,0.)) ;
#708=DIRECTION('Vector Direction',(-1.,-1.38777878078E-016,0.)) ;
#715=DIRECTION('Axis2P3D Direction',(-1.,-1.22460635382E-016,0.)) ;
#727=DIRECTION('Axis2P3D Direction',(-1.,-1.22460635382E-016,0.)) ;
#739=DIRECTION('Axis2P3D Direction',(1.,1.22460635382E-016,0.)) ;
#740=DIRECTION('Axis2P3D XDirection',(-1.07539834614E-016,0.479425538604,0.87758256189)) ;
#744=DIRECTION('Vector Direction',(0.5,-0.415194695654,-0.760008792515)) ;
#751=DIRECTION('Vector Direction',(0.5,0.415194695654,0.760008792515)) ;
#758=DIRECTION('Axis2P3D Direction',(1.,1.22460635382E-016,0.)) ;
#770=DIRECTION('Axis2P3D Direction',(1.,1.22460635382E-016,0.)) ;
#782=DIRECTION('Axis2P3D Direction',(-1.,-1.22460635382E-016,0.)) ;
#783=DIRECTION('Axis2P3D XDirection',(-5.87107560759E-017,0.479425538604,0.87758256189)) ;
#787=DIRECTION('Vector Direction',(-1.,-1.39760657271E-016,0.)) ;
#794=DIRECTION('Vector Direction',(-1.,-1.39760657271E-016,0.)) ;
#801=DIRECTION('Axis2P3D Direction',(-1.,-1.22460635382E-016,0.)) ;
#813=DIRECTION('Axis2P3D Direction',(-1.,-1.22460635382E-016,0.)) ;
#825=DIRECTION('Axis2P3D Direction',(-1.,-1.22460635382E-016,0.)) ;
#826=DIRECTION('Axis2P3D XDirection',(-1.07539834614E-016,0.479425538604,0.87758256189)) ;
#830=DIRECTION('Vector Direction',(-0.5,-0.415194695654,-0.760008792515)) ;
#837=DIRECTION('Vector Direction',(-0.5,0.415194695654,0.760008792515)) ;
#844=DIRECTION('Axis2P3D Direction',(-1.,-1.22460635382E-016,0.)) ;
#856=DIRECTION('Axis2P3D Direction',(-1.,-1.22460635382E-016,0.)) ;
#868=DIRECTION('Vector Direction',(-1.,-1.38777878078E-016,0.)) ;
#875=DIRECTION('Vector Direction',(-1.,-1.38777878078E-016,0.)) ;
#882=DIRECTION('Axis2P3D Direction',(-1.,-1.22460635382E-016,0.)) ;
#894=DIRECTION('Axis2P3D Direction',(-1.,-1.22460635382E-016,0.)) ;
#906=DIRECTION('Axis2P3D Direction',(-1.,-1.22460635382E-016,0.)) ;
#907=DIRECTION('Axis2P3D XDirection',(1.22460635382E-016,-1.,0.)) ;
#915=DIRECTION('Axis2P3D Direction',(-1.,-1.22460635382E-016,0.)) ;
#924=DIRECTION('Axis2P3D Direction',(-1.,-1.22460635382E-016,0.)) ;
#934=DIRECTION('Axis2P3D Direction',(-1.,-1.22460635382E-016,0.)) ;
#935=DIRECTION('Axis2P3D XDirection',(-5.87107560759E-017,0.479425538604,0.87758256189)) ;
#939=DIRECTION('Vector Direction',(-1.,-1.15049018096E-016,0.)) ;
#946=DIRECTION('Vector Direction',(-1.,-1.15049018096E-016,0.)) ;
#953=DIRECTION('Axis2P3D Direction',(-1.,-1.22460635382E-016,0.)) ;
#965=DIRECTION('Axis2P3D Direction',(-1.,-1.22460635382E-016,0.)) ;
#977=DIRECTION('Axis2P3D Direction',(-1.,-1.22460635382E-016,0.)) ;
#978=DIRECTION('Axis2P3D XDirection',(1.22460635382E-016,-1.,0.)) ;
#986=DIRECTION('Axis2P3D Direction',(-1.,-1.22460635382E-016,0.)) ;
#995=DIRECTION('Axis2P3D Direction',(-1.,-1.22460635382E-016,0.)) ;
#1005=DIRECTION('Axis2P3D Direction',(-1.,-1.22460635382E-016,0.)) ;
#1006=DIRECTION('Axis2P3D XDirection',(-5.87107560759E-017,0.479425538604,0.87758256189)) ;
#1010=DIRECTION('Axis2P3D Direction',(-1.,-1.22460635382E-016,0.)) ;
#1019=DIRECTION('Vector Direction',(-1.,-1.16482415698E-016,0.)) ;
#1024=DIRECTION('Vector Direction',(-1.,-1.16482415698E-016,0.)) ;
#1036=DIRECTION('Axis2P3D Direction',(-1.,-1.22460635382E-016,0.)) ;
#1048=DIRECTION('Axis2P3D Direction',(1.,1.22298005056E-016,0.)) ;
#1049=DIRECTION('Axis2P3D XDirection',(0.,-0.479425538604,0.87758256189)) ;
#1053=DIRECTION('Vector Direction',(0.707106781187,0.339005049421,-0.620544580564)) ;
#1062=DIRECTION('Axis2P3D Direction',(1.,1.22298005056E-016,0.)) ;
#1069=DIRECTION('Vector Direction',(0.707106781187,-0.339005049421,0.620544580564)) ;
#1076=DIRECTION('Axis2P3D Direction',(1.,1.22298005056E-016,0.)) ;
#1088=DIRECTION('Axis2P3D Direction',(1.,1.22298005056E-016,0.)) ;
#1089=DIRECTION('Axis2P3D XDirection',(-1.22298005056E-016,1.,0.)) ;
#1093=DIRECTION('Axis2P3D Direction',(1.,1.22298005056E-016,0.)) ;
#1103=DIRECTION('Axis2P3D Direction',(1.,1.22298005056E-016,0.)) ;
#1115=DIRECTION('Axis2P3D Direction',(1.,1.22298005056E-016,0.)) ;
#1116=DIRECTION('Axis2P3D XDirection',(5.86327869444E-017,-0.479425538604,0.87758256189)) ;
#1120=DIRECTION('Vector Direction',(1.,1.22812281485E-016,0.)) ;
#1127=DIRECTION('Vector Direction',(1.,1.22812281485E-016,0.)) ;
#1134=DIRECTION('Axis2P3D Direction',(1.,1.22298005056E-016,0.)) ;
#1146=DIRECTION('Axis2P3D Direction',(1.,1.22298005056E-016,0.)) ;
#1158=DIRECTION('Axis2P3D Direction',(1.,1.22298005056E-016,0.)) ;
#1159=DIRECTION('Axis2P3D XDirection',(1.07539867831E-016,-0.479425538604,0.87758256189)) ;
#1163=DIRECTION('Vector Direction',(0.5,0.415194695654,-0.760008792515)) ;
#1172=DIRECTION('Vector Direction',(0.5,-0.415194695654,0.760008792515)) ;
#1179=DIRECTION('Axis2P3D Direction',(1.,1.22298005056E-016,0.)) ;
#1190=DIRECTION('Axis2P3D Direction',(1.,1.22298005056E-016,0.)) ;
#1201=DIRECTION('Axis2P3D Direction',(1.,1.22298005056E-016,0.)) ;
#1202=DIRECTION('Axis2P3D XDirection',(-1.22298005056E-016,1.,0.)) ;
#1206=DIRECTION('Vector Direction',(0.,0.,1.)) ;
#1215=DIRECTION('Axis2P3D Direction',(1.,1.22298005056E-016,0.)) ;
#1222=DIRECTION('Axis2P3D Direction',(1.,1.22298005056E-016,0.)) ;
#1229=DIRECTION('Vector Direction',(0.,0.,1.)) ;
#1236=DIRECTION('Axis2P3D Direction',(1.,1.22298005056E-016,0.)) ;
#1243=DIRECTION('Axis2P3D Direction',(1.,1.22298005056E-016,0.)) ;
#1257=DIRECTION('Axis2P3D Direction',(1.,1.22298005056E-016,0.)) ;
#1258=DIRECTION('Axis2P3D XDirection',(0.,-0.479425538604,0.87758256189)) ;
#1262=DIRECTION('Axis2P3D Direction',(1.,1.22298005056E-016,0.)) ;
#1277=DIRECTION('Vector Direction',(0.707106781187,0.339005049421,-0.620544580564)) ;
#1289=DIRECTION('Axis2P3D Direction',(1.,1.22298005056E-016,0.)) ;
#1309=DIRECTION('Axis2P3D Direction',(1.22298005056E-016,-1.,0.)) ;
#1310=DIRECTION('Axis2P3D XDirection',(0.,0.,1.)) ;
#1314=DIRECTION('Vector Direction',(-1.,0.,0.)) ;
#1321=DIRECTION('Vector Direction',(0.,0.,1.)) ;
#1333=DIRECTION('Vector Direction',(1.,1.22812281485E-016,0.)) ;
#1340=DIRECTION('Axis2P3D Direction',(1.,1.22298005056E-016,0.)) ;
#1352=DIRECTION('Vector Direction',(1.,1.20356035855E-016,0.)) ;
#1359=DIRECTION('Axis2P3D Direction',(1.,1.22298005056E-016,0.)) ;
#1371=DIRECTION('Vector Direction',(0.,0.,1.)) ;
#1383=DIRECTION('Axis2P3D Direction',(1.,1.22298005056E-016,0.)) ;
#1392=DIRECTION('Axis2P3D Direction',(1.,1.22298005056E-016,0.)) ;
#1399=DIRECTION('Vector Direction',(0.,0.,-1.)) ;
#1406=DIRECTION('Axis2P3D Direction',(1.,1.22298005056E-016,0.)) ;
#1413=DIRECTION('Axis2P3D Direction',(1.,1.22298005056E-016,0.)) ;
#1420=DIRECTION('Vector Direction',(0.,0.,-1.)) ;
#1434=DIRECTION('Axis2P3D Direction',(-1.22298005056E-016,1.,0.)) ;
#1435=DIRECTION('Axis2P3D XDirection',(0.,0.,-1.)) ;
#1439=DIRECTION('Vector Direction',(-1.,0.,0.)) ;
#1456=DIRECTION('Vector Direction',(0.,0.,-1.)) ;
#1468=DIRECTION('Axis2P3D Direction',(1.,1.22298005056E-016,0.)) ;
#1475=DIRECTION('Vector Direction',(0.707106781187,-0.339005049421,0.620544580564)) ;
#1487=DIRECTION('Axis2P3D Direction',(1.,1.22298005056E-016,0.)) ;
#1507=DIRECTION('Vector Direction',(-1.,0.,0.)) ;
#1514=DIRECTION('Vector Direction',(0.,0.,-1.)) ;
#1526=DIRECTION('Vector Direction',(1.,1.22812281485E-016,0.)) ;
#1533=DIRECTION('Axis2P3D Direction',(1.,1.22298005056E-016,0.)) ;
#1545=DIRECTION('Axis2P3D Direction',(1.,1.22298005056E-016,0.)) ;
#1557=DIRECTION('Axis2P3D Direction',(1.,0.,0.)) ;
#1558=DIRECTION('Axis2P3D XDirection',(0.,0.479425538604,-0.87758256189)) ;
#1562=DIRECTION('Vector Direction',(1.,0.,0.)) ;
#1569=DIRECTION('Vector Direction',(1.,0.,0.)) ;
#1576=DIRECTION('Axis2P3D Direction',(1.,0.,0.)) ;
#1588=DIRECTION('Axis2P3D Direction',(1.,0.,0.)) ;
#1600=DIRECTION('Axis2P3D Direction',(1.,1.21430643318E-016,0.)) ;
#1601=DIRECTION('Axis2P3D XDirection',(-1.21430643318E-016,1.,0.)) ;
#1630=DIRECTION('Axis2P3D Direction',(-1.,-1.22460635382E-016,0.)) ;
#1631=DIRECTION('Axis2P3D XDirection',(1.22460635382E-016,-1.,0.)) ;
#48=AXIS2_PLACEMENT_3D(' ',#47,$,$) ;
#55=AXIS2_PLACEMENT_3D('Plane Axis2P3D',#52,#53,#54) ;
#95=AXIS2_PLACEMENT_3D('Plane Axis2P3D',#92,#93,#94) ;
#126=AXIS2_PLACEMENT_3D('Plane Axis2P3D',#123,#124,#125) ;
#157=AXIS2_PLACEMENT_3D('Plane Axis2P3D',#154,#155,#156) ;
#174=AXIS2_PLACEMENT_3D('Plane Axis2P3D',#171,#172,#173) ;
#191=AXIS2_PLACEMENT_3D('Plane Axis2P3D',#188,#189,#190) ;
#231=AXIS2_PLACEMENT_3D('Plane Axis2P3D',#228,#229,#230) ;
#262=AXIS2_PLACEMENT_3D('Plane Axis2P3D',#259,#260,#261) ;
#293=AXIS2_PLACEMENT_3D('Plane Axis2P3D',#290,#291,#292) ;
#315=AXIS2_PLACEMENT_3D('Plane Axis2P3D',#312,#313,#314) ;
#381=AXIS2_PLACEMENT_3D('Plane Axis2P3D',#378,#379,#380) ;
#464=AXIS2_PLACEMENT_3D('Plane Axis2P3D',#461,#462,#463) ;
#521=AXIS2_PLACEMENT_3D('Plane Axis2P3D',#518,#519,#520) ;
#647=AXIS2_PLACEMENT_3D('Plane Axis2P3D',#644,#645,#646) ;
#657=AXIS2_PLACEMENT_3D('Circle Axis2P3D',#655,#656,$) ;
#666=AXIS2_PLACEMENT_3D('Circle Axis2P3D',#664,#665,$) ;
#698=AXIS2_PLACEMENT_3D('Cylinder Axis2P3D',#695,#696,#697) ;
#716=AXIS2_PLACEMENT_3D('Circle Axis2P3D',#714,#715,$) ;
#728=AXIS2_PLACEMENT_3D('Circle Axis2P3D',#726,#727,$) ;
#741=AXIS2_PLACEMENT_3D('Cone Axis2P3D',#738,#739,#740) ;
#759=AXIS2_PLACEMENT_3D('Circle Axis2P3D',#757,#758,$) ;
#771=AXIS2_PLACEMENT_3D('Circle Axis2P3D',#769,#770,$) ;
#784=AXIS2_PLACEMENT_3D('Cylinder Axis2P3D',#781,#782,#783) ;
#802=AXIS2_PLACEMENT_3D('Circle Axis2P3D',#800,#801,$) ;
#814=AXIS2_PLACEMENT_3D('Circle Axis2P3D',#812,#813,$) ;
#827=AXIS2_PLACEMENT_3D('Cone Axis2P3D',#824,#825,#826) ;
#845=AXIS2_PLACEMENT_3D('Circle Axis2P3D',#843,#844,$) ;
#857=AXIS2_PLACEMENT_3D('Circle Axis2P3D',#855,#856,$) ;
#883=AXIS2_PLACEMENT_3D('Circle Axis2P3D',#881,#882,$) ;
#895=AXIS2_PLACEMENT_3D('Circle Axis2P3D',#893,#894,$) ;
#908=AXIS2_PLACEMENT_3D('Plane Axis2P3D',#905,#906,#907) ;
#916=AXIS2_PLACEMENT_3D('Circle Axis2P3D',#914,#915,$) ;
#925=AXIS2_PLACEMENT_3D('Circle Axis2P3D',#923,#924,$) ;
#936=AXIS2_PLACEMENT_3D('Cylinder Axis2P3D',#933,#934,#935) ;
#954=AXIS2_PLACEMENT_3D('Circle Axis2P3D',#952,#953,$) ;
#966=AXIS2_PLACEMENT_3D('Circle Axis2P3D',#964,#965,$) ;
#979=AXIS2_PLACEMENT_3D('Plane Axis2P3D',#976,#977,#978) ;
#987=AXIS2_PLACEMENT_3D('Circle Axis2P3D',#985,#986,$) ;
#996=AXIS2_PLACEMENT_3D('Circle Axis2P3D',#994,#995,$) ;
#1007=AXIS2_PLACEMENT_3D('Cylinder Axis2P3D',#1004,#1005,#1006) ;
#1011=AXIS2_PLACEMENT_3D('Circle Axis2P3D',#1009,#1010,$) ;
#1037=AXIS2_PLACEMENT_3D('Circle Axis2P3D',#1035,#1036,$) ;
#1050=AXIS2_PLACEMENT_3D('Cone Axis2P3D',#1047,#1048,#1049) ;
#1063=AXIS2_PLACEMENT_3D('Circle Axis2P3D',#1061,#1062,$) ;
#1077=AXIS2_PLACEMENT_3D('Circle Axis2P3D',#1075,#1076,$) ;
#1090=AXIS2_PLACEMENT_3D('Plane Axis2P3D',#1087,#1088,#1089) ;
#1094=AXIS2_PLACEMENT_3D('Circle Axis2P3D',#1092,#1093,$) ;
#1104=AXIS2_PLACEMENT_3D('Circle Axis2P3D',#1102,#1103,$) ;
#1117=AXIS2_PLACEMENT_3D('Cylinder Axis2P3D',#1114,#1115,#1116) ;
#1135=AXIS2_PLACEMENT_3D('Circle Axis2P3D',#1133,#1134,$) ;
#1147=AXIS2_PLACEMENT_3D('Circle Axis2P3D',#1145,#1146,$) ;
#1160=AXIS2_PLACEMENT_3D('Cone Axis2P3D',#1157,#1158,#1159) ;
#1180=AXIS2_PLACEMENT_3D('Circle Axis2P3D',#1178,#1179,$) ;
#1191=AXIS2_PLACEMENT_3D('Circle Axis2P3D',#1189,#1190,$) ;
#1203=AXIS2_PLACEMENT_3D('Plane Axis2P3D',#1200,#1201,#1202) ;
#1216=AXIS2_PLACEMENT_3D('Circle Axis2P3D',#1214,#1215,$) ;
#1223=AXIS2_PLACEMENT_3D('Circle Axis2P3D',#1221,#1222,$) ;
#1237=AXIS2_PLACEMENT_3D('Circle Axis2P3D',#1235,#1236,$) ;
#1244=AXIS2_PLACEMENT_3D('Circle Axis2P3D',#1242,#1243,$) ;
#1259=AXIS2_PLACEMENT_3D('Cone Axis2P3D',#1256,#1257,#1258) ;
#1263=AXIS2_PLACEMENT_3D('Circle Axis2P3D',#1261,#1262,$) ;
#1290=AXIS2_PLACEMENT_3D('Circle Axis2P3D',#1288,#1289,$) ;
#1311=AXIS2_PLACEMENT_3D('Plane Axis2P3D',#1308,#1309,#1310) ;
#1341=AXIS2_PLACEMENT_3D('Circle Axis2P3D',#1339,#1340,$) ;
#1360=AXIS2_PLACEMENT_3D('Circle Axis2P3D',#1358,#1359,$) ;
#1384=AXIS2_PLACEMENT_3D('Circle Axis2P3D',#1382,#1383,$) ;
#1393=AXIS2_PLACEMENT_3D('Circle Axis2P3D',#1391,#1392,$) ;
#1407=AXIS2_PLACEMENT_3D('Circle Axis2P3D',#1405,#1406,$) ;
#1414=AXIS2_PLACEMENT_3D('Circle Axis2P3D',#1412,#1413,$) ;
#1436=AXIS2_PLACEMENT_3D('Plane Axis2P3D',#1433,#1434,#1435) ;
#1469=AXIS2_PLACEMENT_3D('Circle Axis2P3D',#1467,#1468,$) ;
#1488=AXIS2_PLACEMENT_3D('Circle Axis2P3D',#1486,#1487,$) ;
#1534=AXIS2_PLACEMENT_3D('Circle Axis2P3D',#1532,#1533,$) ;
#1546=AXIS2_PLACEMENT_3D('Circle Axis2P3D',#1544,#1545,$) ;
#1559=AXIS2_PLACEMENT_3D('Cylinder Axis2P3D',#1556,#1557,#1558) ;
#1577=AXIS2_PLACEMENT_3D('Circle Axis2P3D',#1575,#1576,$) ;
#1589=AXIS2_PLACEMENT_3D('Circle Axis2P3D',#1587,#1588,$) ;
#1602=AXIS2_PLACEMENT_3D('Plane Axis2P3D',#1599,#1600,#1601) ;
#1632=AXIS2_PLACEMENT_3D('Plane Axis2P3D',#1629,#1630,#1631) ;
#40=PRODUCT_DEFINITION_SHAPE(' ',' ',#14) ;
#31=APPROVAL_PERSON_ORGANIZATION(#25,#21,#19) ;
#25=PERSON_AND_ORGANIZATION(#22,#23) ;
#22=PERSON(' ',' ',' ',$,$,$) ;
#23=ORGANIZATION(' ',' ',' ') ;
#21=APPROVAL(#20,' ') ;
#20=APPROVAL_STATUS('not_yet_approved') ;
#19=APPROVAL_ROLE('APPROVER') ;
#13=DATE_AND_TIME(#11,#12) ;
#12=LOCAL_TIME(10,14,56.,#10) ;
#10=COORDINATED_UNIVERSAL_TIME_OFFSET(0,0,.AHEAD.) ;
#86=ORIENTED_EDGE('',*,*,#65,.F.) ;
#87=ORIENTED_EDGE('',*,*,#72,.T.) ;
#88=ORIENTED_EDGE('',*,*,#79,.T.) ;
#89=ORIENTED_EDGE('',*,*,#84,.F.) ;
#117=ORIENTED_EDGE('',*,*,#105,.F.) ;
#118=ORIENTED_EDGE('',*,*,#110,.T.) ;
#119=ORIENTED_EDGE('',*,*,#65,.T.) ;
#120=ORIENTED_EDGE('',*,*,#115,.F.) ;
#148=ORIENTED_EDGE('',*,*,#79,.F.) ;
#149=ORIENTED_EDGE('',*,*,#134,.T.) ;
#150=ORIENTED_EDGE('',*,*,#141,.T.) ;
#151=ORIENTED_EDGE('',*,*,#146,.F.) ;
#165=ORIENTED_EDGE('',*,*,#84,.T.) ;
#166=ORIENTED_EDGE('',*,*,#146,.T.) ;
#167=ORIENTED_EDGE('',*,*,#163,.T.) ;
#168=ORIENTED_EDGE('',*,*,#115,.T.) ;
#182=ORIENTED_EDGE('',*,*,#141,.F.) ;
#183=ORIENTED_EDGE('',*,*,#180,.T.) ;
#184=ORIENTED_EDGE('',*,*,#105,.T.) ;
#185=ORIENTED_EDGE('',*,*,#163,.F.) ;
#222=ORIENTED_EDGE('',*,*,#201,.F.) ;
#223=ORIENTED_EDGE('',*,*,#208,.F.) ;
#224=ORIENTED_EDGE('',*,*,#215,.T.) ;
#225=ORIENTED_EDGE('',*,*,#220,.F.) ;
#253=ORIENTED_EDGE('',*,*,#215,.F.) ;
#254=ORIENTED_EDGE('',*,*,#239,.F.) ;
#255=ORIENTED_EDGE('',*,*,#246,.T.) ;
#256=ORIENTED_EDGE('',*,*,#251,.F.) ;
#284=ORIENTED_EDGE('',*,*,#246,.F.) ;
#285=ORIENTED_EDGE('',*,*,#270,.F.) ;
#286=ORIENTED_EDGE('',*,*,#277,.T.) ;
#287=ORIENTED_EDGE('',*,*,#282,.F.) ;
#306=ORIENTED_EDGE('',*,*,#277,.F.) ;
#307=ORIENTED_EDGE('',*,*,#299,.F.) ;
#308=ORIENTED_EDGE('',*,*,#201,.T.) ;
#309=ORIENTED_EDGE('',*,*,#304,.F.) ;
#346=ORIENTED_EDGE('',*,*,#325,.F.) ;
#347=ORIENTED_EDGE('',*,*,#332,.T.) ;
#348=ORIENTED_EDGE('',*,*,#339,.T.) ;
#349=ORIENTED_EDGE('',*,*,#344,.F.) ;
#372=ORIENTED_EDGE('',*,*,#339,.F.) ;
#373=ORIENTED_EDGE('',*,*,#358,.T.) ;
#374=ORIENTED_EDGE('',*,*,#365,.T.) ;
#375=ORIENTED_EDGE('',*,*,#370,.F.) ;
#403=ORIENTED_EDGE('',*,*,#365,.F.) ;
#404=ORIENTED_EDGE('',*,*,#389,.T.) ;
#405=ORIENTED_EDGE('',*,*,#396,.T.) ;
#406=ORIENTED_EDGE('',*,*,#401,.F.) ;
#420=ORIENTED_EDGE('',*,*,#396,.F.) ;
#421=ORIENTED_EDGE('',*,*,#413,.T.) ;
#422=ORIENTED_EDGE('',*,*,#325,.T.) ;
#423=ORIENTED_EDGE('',*,*,#418,.F.) ;
#455=ORIENTED_EDGE('',*,*,#434,.F.) ;
#456=ORIENTED_EDGE('',*,*,#441,.T.) ;
#457=ORIENTED_EDGE('',*,*,#448,.T.) ;
#458=ORIENTED_EDGE('',*,*,#453,.F.) ;
#486=ORIENTED_EDGE('',*,*,#448,.F.) ;
#487=ORIENTED_EDGE('',*,*,#472,.T.) ;
#488=ORIENTED_EDGE('',*,*,#479,.T.) ;
#489=ORIENTED_EDGE('',*,*,#484,.F.) ;
#512=ORIENTED_EDGE('',*,*,#479,.F.) ;
#513=ORIENTED_EDGE('',*,*,#498,.T.) ;
#514=ORIENTED_EDGE('',*,*,#505,.T.) ;
#515=ORIENTED_EDGE('',*,*,#510,.F.) ;
#534=ORIENTED_EDGE('',*,*,#505,.F.) ;
#535=ORIENTED_EDGE('',*,*,#527,.T.) ;
#536=ORIENTED_EDGE('',*,*,#434,.T.) ;
#537=ORIENTED_EDGE('',*,*,#532,.F.) ;
#569=ORIENTED_EDGE('',*,*,#548,.F.) ;
#570=ORIENTED_EDGE('',*,*,#555,.T.) ;
#571=ORIENTED_EDGE('',*,*,#562,.T.) ;
#572=ORIENTED_EDGE('',*,*,#567,.F.) ;
#595=ORIENTED_EDGE('',*,*,#562,.F.) ;
#596=ORIENTED_EDGE('',*,*,#581,.T.) ;
#597=ORIENTED_EDGE('',*,*,#588,.T.) ;
#598=ORIENTED_EDGE('',*,*,#593,.F.) ;
#621=ORIENTED_EDGE('',*,*,#588,.F.) ;
#622=ORIENTED_EDGE('',*,*,#607,.T.) ;
#623=ORIENTED_EDGE('',*,*,#614,.T.) ;
#624=ORIENTED_EDGE('',*,*,#619,.F.) ;
#638=ORIENTED_EDGE('',*,*,#614,.F.) ;
#639=ORIENTED_EDGE('',*,*,#631,.T.) ;
#640=ORIENTED_EDGE('',*,*,#548,.T.) ;
#641=ORIENTED_EDGE('',*,*,#636,.F.) ;
#650=ORIENTED_EDGE('',*,*,#251,.T.) ;
#651=ORIENTED_EDGE('',*,*,#282,.T.) ;
#652=ORIENTED_EDGE('',*,*,#304,.T.) ;
#653=ORIENTED_EDGE('',*,*,#220,.T.) ;
#670=ORIENTED_EDGE('',*,*,#663,.T.) ;
#671=ORIENTED_EDGE('',*,*,#668,.T.) ;
#675=ORIENTED_EDGE('',*,*,#370,.T.) ;
#676=ORIENTED_EDGE('',*,*,#401,.T.) ;
#677=ORIENTED_EDGE('',*,*,#418,.T.) ;
#678=ORIENTED_EDGE('',*,*,#344,.T.) ;
#682=ORIENTED_EDGE('',*,*,#484,.T.) ;
#683=ORIENTED_EDGE('',*,*,#510,.T.) ;
#684=ORIENTED_EDGE('',*,*,#532,.T.) ;
#685=ORIENTED_EDGE('',*,*,#453,.T.) ;
#689=ORIENTED_EDGE('',*,*,#593,.T.) ;
#690=ORIENTED_EDGE('',*,*,#619,.T.) ;
#691=ORIENTED_EDGE('',*,*,#636,.T.) ;
#692=ORIENTED_EDGE('',*,*,#567,.T.) ;
#720=ORIENTED_EDGE('',*,*,#706,.T.) ;
#721=ORIENTED_EDGE('',*,*,#668,.F.) ;
#722=ORIENTED_EDGE('',*,*,#713,.F.) ;
#723=ORIENTED_EDGE('',*,*,#718,.T.) ;
#732=ORIENTED_EDGE('',*,*,#713,.T.) ;
#733=ORIENTED_EDGE('',*,*,#663,.F.) ;
#734=ORIENTED_EDGE('',*,*,#706,.F.) ;
#735=ORIENTED_EDGE('',*,*,#730,.T.) ;
#763=ORIENTED_EDGE('',*,*,#749,.T.) ;
#764=ORIENTED_EDGE('',*,*,#718,.F.) ;
#765=ORIENTED_EDGE('',*,*,#756,.F.) ;
#766=ORIENTED_EDGE('',*,*,#761,.T.) ;
#775=ORIENTED_EDGE('',*,*,#756,.T.) ;
#776=ORIENTED_EDGE('',*,*,#730,.F.) ;
#777=ORIENTED_EDGE('',*,*,#749,.F.) ;
#778=ORIENTED_EDGE('',*,*,#773,.T.) ;
#806=ORIENTED_EDGE('',*,*,#792,.T.) ;
#807=ORIENTED_EDGE('',*,*,#761,.F.) ;
#808=ORIENTED_EDGE('',*,*,#799,.F.) ;
#809=ORIENTED_EDGE('',*,*,#804,.T.) ;
#818=ORIENTED_EDGE('',*,*,#799,.T.) ;
#819=ORIENTED_EDGE('',*,*,#773,.F.) ;
#820=ORIENTED_EDGE('',*,*,#792,.F.) ;
#821=ORIENTED_EDGE('',*,*,#816,.T.) ;
#849=ORIENTED_EDGE('',*,*,#835,.T.) ;
#850=ORIENTED_EDGE('',*,*,#804,.F.) ;
#851=ORIENTED_EDGE('',*,*,#842,.F.) ;
#852=ORIENTED_EDGE('',*,*,#847,.T.) ;
#861=ORIENTED_EDGE('',*,*,#842,.T.) ;
#862=ORIENTED_EDGE('',*,*,#816,.F.) ;
#863=ORIENTED_EDGE('',*,*,#835,.F.) ;
#864=ORIENTED_EDGE('',*,*,#859,.T.) ;
#887=ORIENTED_EDGE('',*,*,#873,.T.) ;
#888=ORIENTED_EDGE('',*,*,#847,.F.) ;
#889=ORIENTED_EDGE('',*,*,#880,.F.) ;
#890=ORIENTED_EDGE('',*,*,#885,.T.) ;
#899=ORIENTED_EDGE('',*,*,#880,.T.) ;
#900=ORIENTED_EDGE('',*,*,#859,.F.) ;
#901=ORIENTED_EDGE('',*,*,#873,.F.) ;
#902=ORIENTED_EDGE('',*,*,#897,.T.) ;
#911=ORIENTED_EDGE('',*,*,#885,.F.) ;
#912=ORIENTED_EDGE('',*,*,#897,.F.) ;
#929=ORIENTED_EDGE('',*,*,#922,.T.) ;
#930=ORIENTED_EDGE('',*,*,#927,.T.) ;
#958=ORIENTED_EDGE('',*,*,#944,.T.) ;
#959=ORIENTED_EDGE('',*,*,#927,.F.) ;
#960=ORIENTED_EDGE('',*,*,#951,.F.) ;
#961=ORIENTED_EDGE('',*,*,#956,.T.) ;
#970=ORIENTED_EDGE('',*,*,#951,.T.) ;
#971=ORIENTED_EDGE('',*,*,#922,.F.) ;
#972=ORIENTED_EDGE('',*,*,#944,.F.) ;
#973=ORIENTED_EDGE('',*,*,#968,.T.) ;
#982=ORIENTED_EDGE('',*,*,#956,.F.) ;
#983=ORIENTED_EDGE('',*,*,#968,.F.) ;
#1000=ORIENTED_EDGE('',*,*,#993,.T.) ;
#1001=ORIENTED_EDGE('',*,*,#998,.T.) ;
#1029=ORIENTED_EDGE('',*,*,#1017,.F.) ;
#1030=ORIENTED_EDGE('',*,*,#1022,.T.) ;
#1031=ORIENTED_EDGE('',*,*,#998,.F.) ;
#1032=ORIENTED_EDGE('',*,*,#1027,.F.) ;
#1041=ORIENTED_EDGE('',*,*,#1039,.F.) ;
#1042=ORIENTED_EDGE('',*,*,#1027,.T.) ;
#1043=ORIENTED_EDGE('',*,*,#993,.F.) ;
#1044=ORIENTED_EDGE('',*,*,#1022,.F.) ;
#1081=ORIENTED_EDGE('',*,*,#1060,.T.) ;
#1082=ORIENTED_EDGE('',*,*,#1067,.F.) ;
#1083=ORIENTED_EDGE('',*,*,#1074,.F.) ;
#1084=ORIENTED_EDGE('',*,*,#1079,.T.) ;
#1098=ORIENTED_EDGE('',*,*,#1096,.F.) ;
#1099=ORIENTED_EDGE('',*,*,#1079,.F.) ;
#1108=ORIENTED_EDGE('',*,*,#1074,.T.) ;
#1109=ORIENTED_EDGE('',*,*,#1106,.F.) ;
#1110=ORIENTED_EDGE('',*,*,#1060,.F.) ;
#1111=ORIENTED_EDGE('',*,*,#1096,.T.) ;
#1139=ORIENTED_EDGE('',*,*,#1125,.F.) ;
#1140=ORIENTED_EDGE('',*,*,#1067,.T.) ;
#1141=ORIENTED_EDGE('',*,*,#1132,.T.) ;
#1142=ORIENTED_EDGE('',*,*,#1137,.T.) ;
#1151=ORIENTED_EDGE('',*,*,#1132,.F.) ;
#1152=ORIENTED_EDGE('',*,*,#1106,.T.) ;
#1153=ORIENTED_EDGE('',*,*,#1125,.T.) ;
#1154=ORIENTED_EDGE('',*,*,#1149,.T.) ;
#1184=ORIENTED_EDGE('',*,*,#1170,.T.) ;
#1185=ORIENTED_EDGE('',*,*,#1177,.F.) ;
#1186=ORIENTED_EDGE('',*,*,#1182,.T.) ;
#1195=ORIENTED_EDGE('',*,*,#1177,.T.) ;
#1196=ORIENTED_EDGE('',*,*,#1170,.F.) ;
#1197=ORIENTED_EDGE('',*,*,#1193,.T.) ;
#1248=ORIENTED_EDGE('',*,*,#1213,.F.) ;
#1249=ORIENTED_EDGE('',*,*,#1220,.T.) ;
#1250=ORIENTED_EDGE('',*,*,#1227,.T.) ;
#1251=ORIENTED_EDGE('',*,*,#1234,.F.) ;
#1252=ORIENTED_EDGE('',*,*,#1241,.F.) ;
#1253=ORIENTED_EDGE('',*,*,#1246,.F.) ;
#1282=ORIENTED_EDGE('',*,*,#1269,.F.) ;
#1283=ORIENTED_EDGE('',*,*,#1275,.T.) ;
#1284=ORIENTED_EDGE('',*,*,#1246,.T.) ;
#1285=ORIENTED_EDGE('',*,*,#1280,.T.) ;
#1302=ORIENTED_EDGE('',*,*,#1294,.F.) ;
#1303=ORIENTED_EDGE('',*,*,#1280,.F.) ;
#1304=ORIENTED_EDGE('',*,*,#1241,.T.) ;
#1305=ORIENTED_EDGE('',*,*,#1300,.F.) ;
#1326=ORIENTED_EDGE('',*,*,#1300,.T.) ;
#1327=ORIENTED_EDGE('',*,*,#1234,.T.) ;
#1328=ORIENTED_EDGE('',*,*,#1319,.T.) ;
#1329=ORIENTED_EDGE('',*,*,#1324,.F.) ;
#1345=ORIENTED_EDGE('',*,*,#1319,.F.) ;
#1346=ORIENTED_EDGE('',*,*,#1227,.F.) ;
#1347=ORIENTED_EDGE('',*,*,#1338,.F.) ;
#1348=ORIENTED_EDGE('',*,*,#1343,.T.) ;
#1364=ORIENTED_EDGE('',*,*,#1338,.T.) ;
#1365=ORIENTED_EDGE('',*,*,#1220,.F.) ;
#1366=ORIENTED_EDGE('',*,*,#1357,.T.) ;
#1367=ORIENTED_EDGE('',*,*,#1362,.T.) ;
#1376=ORIENTED_EDGE('',*,*,#1357,.F.) ;
#1377=ORIENTED_EDGE('',*,*,#1213,.T.) ;
#1378=ORIENTED_EDGE('',*,*,#1275,.F.) ;
#1379=ORIENTED_EDGE('',*,*,#1374,.F.) ;
#1425=ORIENTED_EDGE('',*,*,#1390,.T.) ;
#1426=ORIENTED_EDGE('',*,*,#1397,.T.) ;
#1427=ORIENTED_EDGE('',*,*,#1404,.F.) ;
#1428=ORIENTED_EDGE('',*,*,#1411,.F.) ;
#1429=ORIENTED_EDGE('',*,*,#1418,.F.) ;
#1430=ORIENTED_EDGE('',*,*,#1423,.F.) ;
#1461=ORIENTED_EDGE('',*,*,#1444,.F.) ;
#1462=ORIENTED_EDGE('',*,*,#1423,.T.) ;
#1463=ORIENTED_EDGE('',*,*,#1454,.F.) ;
#1464=ORIENTED_EDGE('',*,*,#1459,.F.) ;
#1480=ORIENTED_EDGE('',*,*,#1473,.F.) ;
#1481=ORIENTED_EDGE('',*,*,#1454,.T.) ;
#1482=ORIENTED_EDGE('',*,*,#1418,.T.) ;
#1483=ORIENTED_EDGE('',*,*,#1478,.T.) ;
#1500=ORIENTED_EDGE('',*,*,#1492,.F.) ;
#1501=ORIENTED_EDGE('',*,*,#1478,.F.) ;
#1502=ORIENTED_EDGE('',*,*,#1411,.T.) ;
#1503=ORIENTED_EDGE('',*,*,#1498,.F.) ;
#1519=ORIENTED_EDGE('',*,*,#1498,.T.) ;
#1520=ORIENTED_EDGE('',*,*,#1404,.T.) ;
#1521=ORIENTED_EDGE('',*,*,#1512,.T.) ;
#1522=ORIENTED_EDGE('',*,*,#1517,.F.) ;
#1538=ORIENTED_EDGE('',*,*,#1512,.F.) ;
#1539=ORIENTED_EDGE('',*,*,#1397,.F.) ;
#1540=ORIENTED_EDGE('',*,*,#1531,.F.) ;
#1541=ORIENTED_EDGE('',*,*,#1536,.T.) ;
#1550=ORIENTED_EDGE('',*,*,#1531,.T.) ;
#1551=ORIENTED_EDGE('',*,*,#1390,.F.) ;
#1552=ORIENTED_EDGE('',*,*,#1444,.T.) ;
#1553=ORIENTED_EDGE('',*,*,#1548,.T.) ;
#1581=ORIENTED_EDGE('',*,*,#1567,.F.) ;
#1582=ORIENTED_EDGE('',*,*,#1182,.F.) ;
#1583=ORIENTED_EDGE('',*,*,#1574,.T.) ;
#1584=ORIENTED_EDGE('',*,*,#1579,.T.) ;
#1593=ORIENTED_EDGE('',*,*,#1574,.F.) ;
#1594=ORIENTED_EDGE('',*,*,#1193,.F.) ;
#1595=ORIENTED_EDGE('',*,*,#1567,.T.) ;
#1596=ORIENTED_EDGE('',*,*,#1591,.T.) ;
#1605=ORIENTED_EDGE('',*,*,#1017,.T.) ;
#1606=ORIENTED_EDGE('',*,*,#1039,.T.) ;
#1609=ORIENTED_EDGE('',*,*,#1591,.F.) ;
#1610=ORIENTED_EDGE('',*,*,#1579,.F.) ;
#1613=ORIENTED_EDGE('',*,*,#1459,.T.) ;
#1614=ORIENTED_EDGE('',*,*,#1473,.T.) ;
#1615=ORIENTED_EDGE('',*,*,#1492,.T.) ;
#1616=ORIENTED_EDGE('',*,*,#1517,.T.) ;
#1617=ORIENTED_EDGE('',*,*,#1536,.F.) ;
#1618=ORIENTED_EDGE('',*,*,#1548,.F.) ;
#1621=ORIENTED_EDGE('',*,*,#1294,.T.) ;
#1622=ORIENTED_EDGE('',*,*,#1324,.T.) ;
#1623=ORIENTED_EDGE('',*,*,#1343,.F.) ;
#1624=ORIENTED_EDGE('',*,*,#1362,.F.) ;
#1625=ORIENTED_EDGE('',*,*,#1374,.T.) ;
#1626=ORIENTED_EDGE('',*,*,#1269,.T.) ;
#1635=ORIENTED_EDGE('',*,*,#299,.T.) ;
#1636=ORIENTED_EDGE('',*,*,#270,.T.) ;
#1637=ORIENTED_EDGE('',*,*,#239,.T.) ;
#1638=ORIENTED_EDGE('',*,*,#208,.T.) ;
#1641=ORIENTED_EDGE('',*,*,#631,.F.) ;
#1642=ORIENTED_EDGE('',*,*,#607,.F.) ;
#1643=ORIENTED_EDGE('',*,*,#581,.F.) ;
#1644=ORIENTED_EDGE('',*,*,#555,.F.) ;
#1647=ORIENTED_EDGE('',*,*,#527,.F.) ;
#1648=ORIENTED_EDGE('',*,*,#498,.F.) ;
#1649=ORIENTED_EDGE('',*,*,#472,.F.) ;
#1650=ORIENTED_EDGE('',*,*,#441,.F.) ;
#1653=ORIENTED_EDGE('',*,*,#413,.F.) ;
#1654=ORIENTED_EDGE('',*,*,#389,.F.) ;
#1655=ORIENTED_EDGE('',*,*,#358,.F.) ;
#1656=ORIENTED_EDGE('',*,*,#332,.F.) ;
#1659=ORIENTED_EDGE('',*,*,#180,.F.) ;
#1660=ORIENTED_EDGE('',*,*,#134,.F.) ;
#1661=ORIENTED_EDGE('',*,*,#72,.F.) ;
#1662=ORIENTED_EDGE('',*,*,#110,.F.) ;
#1665=ORIENTED_EDGE('',*,*,#1137,.F.) ;
#1666=ORIENTED_EDGE('',*,*,#1149,.F.) ;
#672=FACE_BOUND('',#669,.T.) ;
#931=FACE_BOUND('',#928,.T.) ;
#1002=FACE_BOUND('',#999,.T.) ;
#1611=FACE_BOUND('',#1608,.T.) ;
#1619=FACE_BOUND('',#1612,.T.) ;
#1627=FACE_BOUND('',#1620,.T.) ;
#1645=FACE_BOUND('',#1640,.T.) ;
#1651=FACE_BOUND('',#1646,.T.) ;
#1657=FACE_BOUND('',#1652,.T.) ;
#1663=FACE_BOUND('',#1658,.T.) ;
#1667=FACE_BOUND('',#1664,.T.) ;
#51=CLOSED_SHELL('Closed Shell',(#91,#122,#153,#170,#187,#227,#258,#289,#311,#351,#377,#408,#425,#460,#491,#517,#539,#574,#600,#626,#643,#673,#680,#687,#694,#725,#737,#768,#780,#811,#823,#854,#866,#892,#904,#932,#963,#975,#1003,#1034,#1046,#1086,#1101,#1113,#1144,#1156,#1188,#1199,#1255,#1287,#1307,#1331,#1350,#1369,#1381,#1432,#1466,#1485,#1505,#1524,#1543,#1555,#1586,#1598,#1628,#1668)) ;
#59=VECTOR('Line Direction',#58,1.) ;
#68=VECTOR('Line Direction',#67,1.) ;
#75=VECTOR('Line Direction',#74,1.) ;
#82=VECTOR('Line Direction',#81,1.) ;
#99=VECTOR('Line Direction',#98,1.) ;
#108=VECTOR('Line Direction',#107,1.) ;
#113=VECTOR('Line Direction',#112,1.) ;
#130=VECTOR('Line Direction',#129,1.) ;
#137=VECTOR('Line Direction',#136,1.) ;
#144=VECTOR('Line Direction',#143,1.) ;
#161=VECTOR('Line Direction',#160,1.) ;
#178=VECTOR('Line Direction',#177,1.) ;
#195=VECTOR('Line Direction',#194,1.) ;
#204=VECTOR('Line Direction',#203,1.) ;
#211=VECTOR('Line Direction',#210,1.) ;
#218=VECTOR('Line Direction',#217,1.) ;
#235=VECTOR('Line Direction',#234,1.) ;
#242=VECTOR('Line Direction',#241,1.) ;
#249=VECTOR('Line Direction',#248,1.) ;
#266=VECTOR('Line Direction',#265,1.) ;
#273=VECTOR('Line Direction',#272,1.) ;
#280=VECTOR('Line Direction',#279,1.) ;
#297=VECTOR('Line Direction',#296,1.) ;
#302=VECTOR('Line Direction',#301,1.) ;
#319=VECTOR('Line Direction',#318,1.) ;
#328=VECTOR('Line Direction',#327,1.) ;
#335=VECTOR('Line Direction',#334,1.) ;
#342=VECTOR('Line Direction',#341,1.) ;
#354=VECTOR('Line Direction',#353,1.) ;
#361=VECTOR('Line Direction',#360,1.) ;
#368=VECTOR('Line Direction',#367,1.) ;
#385=VECTOR('Line Direction',#384,1.) ;
#392=VECTOR('Line Direction',#391,1.) ;
#399=VECTOR('Line Direction',#398,1.) ;
#411=VECTOR('Line Direction',#410,1.) ;
#416=VECTOR('Line Direction',#415,1.) ;
#428=VECTOR('Line Direction',#427,1.) ;
#437=VECTOR('Line Direction',#436,1.) ;
#444=VECTOR('Line Direction',#443,1.) ;
#451=VECTOR('Line Direction',#450,1.) ;
#468=VECTOR('Line Direction',#467,1.) ;
#475=VECTOR('Line Direction',#474,1.) ;
#482=VECTOR('Line Direction',#481,1.) ;
#494=VECTOR('Line Direction',#493,1.) ;
#501=VECTOR('Line Direction',#500,1.) ;
#508=VECTOR('Line Direction',#507,1.) ;
#525=VECTOR('Line Direction',#524,1.) ;
#530=VECTOR('Line Direction',#529,1.) ;
#542=VECTOR('Line Direction',#541,1.) ;
#551=VECTOR('Line Direction',#550,1.) ;
#558=VECTOR('Line Direction',#557,1.) ;
#565=VECTOR('Line Direction',#564,1.) ;
#577=VECTOR('Line Direction',#576,1.) ;
#584=VECTOR('Line Direction',#583,1.) ;
#591=VECTOR('Line Direction',#590,1.) ;
#603=VECTOR('Line Direction',#602,1.) ;
#610=VECTOR('Line Direction',#609,1.) ;
#617=VECTOR('Line Direction',#616,1.) ;
#629=VECTOR('Line Direction',#628,1.) ;
#634=VECTOR('Line Direction',#633,1.) ;
#702=VECTOR('Line Direction',#701,1.) ;
#709=VECTOR('Line Direction',#708,1.) ;
#745=VECTOR('Line Direction',#744,1.) ;
#752=VECTOR('Line Direction',#751,1.) ;
#788=VECTOR('Line Direction',#787,1.) ;
#795=VECTOR('Line Direction',#794,1.) ;
#831=VECTOR('Line Direction',#830,1.) ;
#838=VECTOR('Line Direction',#837,1.) ;
#869=VECTOR('Line Direction',#868,1.) ;
#876=VECTOR('Line Direction',#875,1.) ;
#940=VECTOR('Line Direction',#939,1.) ;
#947=VECTOR('Line Direction',#946,1.) ;
#1020=VECTOR('Line Direction',#1019,1.) ;
#1025=VECTOR('Line Direction',#1024,1.) ;
#1054=VECTOR('Line Direction',#1053,1.) ;
#1070=VECTOR('Line Direction',#1069,1.) ;
#1121=VECTOR('Line Direction',#1120,1.) ;
#1128=VECTOR('Line Direction',#1127,1.) ;
#1164=VECTOR('Line Direction',#1163,1.) ;
#1173=VECTOR('Line Direction',#1172,1.) ;
#1207=VECTOR('Line Direction',#1206,1.) ;
#1230=VECTOR('Line Direction',#1229,1.) ;
#1278=VECTOR('Line Direction',#1277,1.) ;
#1315=VECTOR('Line Direction',#1314,1.) ;
#1322=VECTOR('Line Direction',#1321,1.) ;
#1334=VECTOR('Line Direction',#1333,1.) ;
#1353=VECTOR('Line Direction',#1352,1.) ;
#1372=VECTOR('Line Direction',#1371,1.) ;
#1400=VECTOR('Line Direction',#1399,1.) ;
#1421=VECTOR('Line Direction',#1420,1.) ;
#1440=VECTOR('Line Direction',#1439,1.) ;
#1457=VECTOR('Line Direction',#1456,1.) ;
#1476=VECTOR('Line Direction',#1475,1.) ;
#1508=VECTOR('Line Direction',#1507,1.) ;
#1515=VECTOR('Line Direction',#1514,1.) ;
#1527=VECTOR('Line Direction',#1526,1.) ;
#1563=VECTOR('Line Direction',#1562,1.) ;
#1570=VECTOR('Line Direction',#1569,1.) ;
#1670=ADVANCED_BREP_SHAPE_REPRESENTATION('NONE',(#1669),#46) ;
#49=SHAPE_REPRESENTATION(' ',(#48),#46) ;
#91=ADVANCED_FACE('',(#90),#56,.F.) ;
#122=ADVANCED_FACE('',(#121),#96,.F.) ;
#153=ADVANCED_FACE('',(#152),#127,.F.) ;
#170=ADVANCED_FACE('',(#169),#158,.T.) ;
#187=ADVANCED_FACE('',(#186),#175,.F.) ;
#227=ADVANCED_FACE('',(#226),#192,.T.) ;
#258=ADVANCED_FACE('',(#257),#232,.T.) ;
#289=ADVANCED_FACE('',(#288),#263,.T.) ;
#311=ADVANCED_FACE('',(#310),#294,.T.) ;
#351=ADVANCED_FACE('',(#350),#316,.T.) ;
#377=ADVANCED_FACE('',(#376),#96,.F.) ;
#408=ADVANCED_FACE('',(#407),#382,.T.) ;
#425=ADVANCED_FACE('',(#424),#127,.F.) ;
#460=ADVANCED_FACE('',(#459),#56,.F.) ;
#491=ADVANCED_FACE('',(#490),#465,.T.) ;
#517=ADVANCED_FACE('',(#516),#175,.F.) ;
#539=ADVANCED_FACE('',(#538),#522,.T.) ;
#574=ADVANCED_FACE('',(#573),#465,.T.) ;
#600=ADVANCED_FACE('',(#599),#316,.T.) ;
#626=ADVANCED_FACE('',(#625),#522,.T.) ;
#643=ADVANCED_FACE('',(#642),#382,.T.) ;
#673=ADVANCED_FACE('',(#654,#672),#648,.F.) ;
#680=ADVANCED_FACE('',(#679),#158,.T.) ;
#687=ADVANCED_FACE('',(#686),#158,.T.) ;
#694=ADVANCED_FACE('',(#693),#158,.T.) ;
#725=ADVANCED_FACE('',(#724),#699,.T.) ;
#737=ADVANCED_FACE('',(#736),#699,.T.) ;
#768=ADVANCED_FACE('',(#767),#742,.T.) ;
#780=ADVANCED_FACE('',(#779),#742,.T.) ;
#811=ADVANCED_FACE('',(#810),#785,.T.) ;
#823=ADVANCED_FACE('',(#822),#785,.T.) ;
#854=ADVANCED_FACE('',(#853),#828,.T.) ;
#866=ADVANCED_FACE('',(#865),#828,.T.) ;
#892=ADVANCED_FACE('',(#891),#699,.T.) ;
#904=ADVANCED_FACE('',(#903),#699,.T.) ;
#932=ADVANCED_FACE('',(#913,#931),#909,.F.) ;
#963=ADVANCED_FACE('',(#962),#937,.F.) ;
#975=ADVANCED_FACE('',(#974),#937,.F.) ;
#1003=ADVANCED_FACE('',(#984,#1002),#980,.F.) ;
#1034=ADVANCED_FACE('',(#1033),#1008,.F.) ;
#1046=ADVANCED_FACE('',(#1045),#1008,.F.) ;
#1086=ADVANCED_FACE('',(#1085),#1051,.T.) ;
#1101=ADVANCED_FACE('',(#1100),#1091,.F.) ;
#1113=ADVANCED_FACE('',(#1112),#1051,.T.) ;
#1144=ADVANCED_FACE('',(#1143),#1118,.T.) ;
#1156=ADVANCED_FACE('',(#1155),#1118,.T.) ;
#1188=ADVANCED_FACE('',(#1187),#1161,.F.) ;
#1199=ADVANCED_FACE('',(#1198),#1161,.F.) ;
#1255=ADVANCED_FACE('',(#1254),#1204,.T.) ;
#1287=ADVANCED_FACE('',(#1286),#1260,.F.) ;
#1307=ADVANCED_FACE('',(#1306),#1260,.F.) ;
#1331=ADVANCED_FACE('',(#1330),#1312,.T.) ;
#1350=ADVANCED_FACE('',(#1349),#1118,.T.) ;
#1369=ADVANCED_FACE('',(#1368),#1118,.T.) ;
#1381=ADVANCED_FACE('',(#1380),#1312,.T.) ;
#1432=ADVANCED_FACE('',(#1431),#1204,.T.) ;
#1466=ADVANCED_FACE('',(#1465),#1437,.T.) ;
#1485=ADVANCED_FACE('',(#1484),#1260,.F.) ;
#1505=ADVANCED_FACE('',(#1504),#1260,.F.) ;
#1524=ADVANCED_FACE('',(#1523),#1437,.T.) ;
#1543=ADVANCED_FACE('',(#1542),#1118,.T.) ;
#1555=ADVANCED_FACE('',(#1554),#1118,.T.) ;
#1586=ADVANCED_FACE('',(#1585),#1560,.F.) ;
#1598=ADVANCED_FACE('',(#1597),#1560,.F.) ;
#1628=ADVANCED_FACE('',(#1607,#1611,#1619,#1627),#1603,.T.) ;
#1668=ADVANCED_FACE('',(#1639,#1645,#1651,#1657,#1663,#1667),#1633,.T.) ;
#4=APPLICATION_PROTOCOL_DEFINITION('international standard','config_control_design',1994,#1) ;
#32=APPROVAL_DATE_TIME(#13,#21) ;
#1270=B_SPLINE_CURVE_WITH_KNOTS('',3,(#1271,#1272,#1273,#1274),.UNSPECIFIED.,.F.,.U.,(4,4),(1.62231535869,3.15328564746),.UNSPECIFIED.) ;
#1295=B_SPLINE_CURVE_WITH_KNOTS('',3,(#1296,#1297,#1298,#1299),.UNSPECIFIED.,.F.,.U.,(4,4),(1.62231535868,3.15328564746),.UNSPECIFIED.) ;
#1445=B_SPLINE_CURVE_WITH_KNOTS('',5,(#1446,#1447,#1448,#1449,#1450,#1451),.UNSPECIFIED.,.F.,.U.,(6,6),(1.62231535868,3.15328564746),.UNSPECIFIED.) ;
#1493=B_SPLINE_CURVE_WITH_KNOTS('',3,(#1494,#1495,#1496,#1497),.UNSPECIFIED.,.F.,.U.,(4,4),(1.62231535868,3.15328564746),.UNSPECIFIED.) ;
#1669=MANIFOLD_SOLID_BREP('PartBody',#51) ;
#11=CALENDAR_DATE(2012,25,9) ;
#30=CC_DESIGN_APPROVAL(#21,(#16,#6,#14)) ;
#18=CC_DESIGN_DATE_AND_TIME_ASSIGNMENT(#13,#17,(#16)) ;
#29=CC_DESIGN_DATE_AND_TIME_ASSIGNMENT(#13,#28,(#14)) ;
#17=DATE_TIME_ROLE('classification_date') ;
#28=DATE_TIME_ROLE('creation_date') ;
#27=CC_DESIGN_PERSON_AND_ORGANIZATION_ASSIGNMENT(#25,#26,(#16)) ;
#33=CC_DESIGN_PERSON_AND_ORGANIZATION_ASSIGNMENT(#25,#34,(#6)) ;
#35=CC_DESIGN_PERSON_AND_ORGANIZATION_ASSIGNMENT(#25,#36,(#6,#14)) ;
#37=CC_DESIGN_PERSON_AND_ORGANIZATION_ASSIGNMENT(#25,#38,(#5)) ;
#26=PERSON_AND_ORGANIZATION_ROLE('classification_officer') ;
#34=PERSON_AND_ORGANIZATION_ROLE('design_supplier') ;
#36=PERSON_AND_ORGANIZATION_ROLE('creator') ;
#38=PERSON_AND_ORGANIZATION_ROLE('design_owner') ;
#39=CC_DESIGN_SECURITY_CLASSIFICATION(#16,(#6)) ;
#658=CIRCLE('generated circle',#657,2.675) ;
#667=CIRCLE('generated circle',#666,2.675) ;
#717=CIRCLE('generated circle',#716,2.675) ;
#729=CIRCLE('generated circle',#728,2.675) ;
#760=CIRCLE('generated circle',#759,3.1275) ;
#772=CIRCLE('generated circle',#771,3.1275) ;
#803=CIRCLE('generated circle',#802,3.1275) ;
#815=CIRCLE('generated circle',#814,3.1275) ;
#846=CIRCLE('generated circle',#845,2.675) ;
#858=CIRCLE('generated circle',#857,2.675) ;
#884=CIRCLE('generated circle',#883,2.675) ;
#896=CIRCLE('generated circle',#895,2.675) ;
#917=CIRCLE('generated circle',#916,2.325) ;
#926=CIRCLE('generated circle',#925,2.325) ;
#955=CIRCLE('generated circle',#954,2.325) ;
#967=CIRCLE('generated circle',#966,2.325) ;
#988=CIRCLE('generated circle',#987,2.06) ;
#997=CIRCLE('generated circle',#996,2.06) ;
#1012=CIRCLE('generated circle',#1011,2.06) ;
#1038=CIRCLE('generated circle',#1037,2.06) ;
#1064=CIRCLE('generated circle',#1063,0.6325) ;
#1078=CIRCLE('generated circle',#1077,0.5325) ;
#1095=CIRCLE('generated circle',#1094,0.5325) ;
#1105=CIRCLE('generated circle',#1104,0.6325) ;
#1136=CIRCLE('generated circle',#1135,0.6325) ;
#1148=CIRCLE('generated circle',#1147,0.6325) ;
#1181=CIRCLE('generated circle',#1180,0.4925) ;
#1192=CIRCLE('generated circle',#1191,0.4925) ;
#1217=CIRCLE('generated circle',#1216,0.6325) ;
#1224=CIRCLE('generated circle',#1223,0.6325) ;
#1238=CIRCLE('generated circle',#1237,0.56) ;
#1245=CIRCLE('generated circle',#1244,0.56) ;
#1264=CIRCLE('generated circle',#1263,0.525) ;
#1291=CIRCLE('generated circle',#1290,0.525) ;
#1342=CIRCLE('generated circle',#1341,0.6325) ;
#1361=CIRCLE('generated circle',#1360,0.6325) ;
#1385=CIRCLE('generated circle',#1384,0.6325) ;
#1394=CIRCLE('generated circle',#1393,0.6325) ;
#1408=CIRCLE('generated circle',#1407,0.56) ;
#1415=CIRCLE('generated circle',#1414,0.56) ;
#1470=CIRCLE('generated circle',#1469,0.525) ;
#1489=CIRCLE('generated circle',#1488,0.525) ;
#1535=CIRCLE('generated circle',#1534,0.6325) ;
#1547=CIRCLE('generated circle',#1546,0.6325) ;
#1578=CIRCLE('generated circle',#1577,0.493) ;
#1590=CIRCLE('generated circle',#1589,0.493) ;
#742=CONICAL_SURFACE('Cone',#741,2.675,1.0471975512) ;
#828=CONICAL_SURFACE('Cone',#827,2.675,1.0471975512) ;
#1051=CONICAL_SURFACE('Cone',#1050,0.5325,0.785398163397) ;
#1161=CONICAL_SURFACE('Cone',#1160,1.11022302463E-015,1.0471975512) ;
#1260=CONICAL_SURFACE('Cone',#1259,0.4925,0.785398163397) ;
#1671=SHAPE_REPRESENTATION_RELATIONSHIP(' ',' ',#49,#1670) ;
#699=CYLINDRICAL_SURFACE('generated cylinder',#698,2.675) ;
#785=CYLINDRICAL_SURFACE('generated cylinder',#784,3.1275) ;
#937=CYLINDRICAL_SURFACE('generated cylinder',#936,2.325) ;
#1008=CYLINDRICAL_SURFACE('generated cylinder',#1007,2.06) ;
#1118=CYLINDRICAL_SURFACE('generated cylinder',#1117,0.6325) ;
#1560=CYLINDRICAL_SURFACE('generated cylinder',#1559,0.493) ;
#3=DESIGN_CONTEXT(' ',#1,'design') ;
#65=EDGE_CURVE('',#62,#64,#60,.T.) ;
#72=EDGE_CURVE('',#62,#71,#69,.F.) ;
#79=EDGE_CURVE('',#71,#78,#76,.T.) ;
#84=EDGE_CURVE('',#64,#78,#83,.F.) ;
#105=EDGE_CURVE('',#102,#104,#100,.T.) ;
#110=EDGE_CURVE('',#102,#62,#109,.F.) ;
#115=EDGE_CURVE('',#104,#64,#114,.F.) ;
#134=EDGE_CURVE('',#71,#133,#131,.F.) ;
#141=EDGE_CURVE('',#133,#140,#138,.T.) ;
#146=EDGE_CURVE('',#78,#140,#145,.F.) ;
#163=EDGE_CURVE('',#140,#104,#162,.F.) ;
#180=EDGE_CURVE('',#133,#102,#179,.F.) ;
#201=EDGE_CURVE('',#198,#200,#196,.T.) ;
#208=EDGE_CURVE('',#207,#198,#205,.F.) ;
#215=EDGE_CURVE('',#207,#214,#212,.T.) ;
#220=EDGE_CURVE('',#200,#214,#219,.T.) ;
#239=EDGE_CURVE('',#238,#207,#236,.F.) ;
#246=EDGE_CURVE('',#238,#245,#243,.T.) ;
#251=EDGE_CURVE('',#214,#245,#250,.T.) ;
#270=EDGE_CURVE('',#269,#238,#267,.F.) ;
#277=EDGE_CURVE('',#269,#276,#274,.T.) ;
#282=EDGE_CURVE('',#245,#276,#281,.T.) ;
#299=EDGE_CURVE('',#198,#269,#298,.F.) ;
#304=EDGE_CURVE('',#276,#200,#303,.T.) ;
#325=EDGE_CURVE('',#322,#324,#320,.T.) ;
#332=EDGE_CURVE('',#322,#331,#329,.T.) ;
#339=EDGE_CURVE('',#331,#338,#336,.T.) ;
#344=EDGE_CURVE('',#324,#338,#343,.T.) ;
#358=EDGE_CURVE('',#331,#357,#355,.T.) ;
#365=EDGE_CURVE('',#357,#364,#362,.T.) ;
#370=EDGE_CURVE('',#338,#364,#369,.T.) ;
#389=EDGE_CURVE('',#357,#388,#386,.T.) ;
#396=EDGE_CURVE('',#388,#395,#393,.T.) ;
#401=EDGE_CURVE('',#364,#395,#400,.T.) ;
#413=EDGE_CURVE('',#388,#322,#412,.T.) ;
#418=EDGE_CURVE('',#395,#324,#417,.T.) ;
#434=EDGE_CURVE('',#431,#433,#429,.T.) ;
#441=EDGE_CURVE('',#431,#440,#438,.T.) ;
#448=EDGE_CURVE('',#440,#447,#445,.T.) ;
#453=EDGE_CURVE('',#433,#447,#452,.T.) ;
#472=EDGE_CURVE('',#440,#471,#469,.T.) ;
#479=EDGE_CURVE('',#471,#478,#476,.T.) ;
#484=EDGE_CURVE('',#447,#478,#483,.T.) ;
#498=EDGE_CURVE('',#471,#497,#495,.T.) ;
#505=EDGE_CURVE('',#497,#504,#502,.T.) ;
#510=EDGE_CURVE('',#478,#504,#509,.T.) ;
#527=EDGE_CURVE('',#497,#431,#526,.T.) ;
#532=EDGE_CURVE('',#504,#433,#531,.T.) ;
#548=EDGE_CURVE('',#545,#547,#543,.T.) ;
#555=EDGE_CURVE('',#545,#554,#552,.F.) ;
#562=EDGE_CURVE('',#554,#561,#559,.T.) ;
#567=EDGE_CURVE('',#547,#561,#566,.F.) ;
#581=EDGE_CURVE('',#554,#580,#578,.F.) ;
#588=EDGE_CURVE('',#580,#587,#585,.T.) ;
#593=EDGE_CURVE('',#561,#587,#592,.F.) ;
#607=EDGE_CURVE('',#580,#606,#604,.F.) ;
#614=EDGE_CURVE('',#606,#613,#611,.T.) ;
#619=EDGE_CURVE('',#587,#613,#618,.F.) ;
#631=EDGE_CURVE('',#606,#545,#630,.F.) ;
#636=EDGE_CURVE('',#613,#547,#635,.F.) ;
#663=EDGE_CURVE('',#660,#662,#658,.T.) ;
#668=EDGE_CURVE('',#662,#660,#667,.T.) ;
#706=EDGE_CURVE('',#705,#660,#703,.T.) ;
#713=EDGE_CURVE('',#712,#662,#710,.T.) ;
#718=EDGE_CURVE('',#712,#705,#717,.T.) ;
#730=EDGE_CURVE('',#705,#712,#729,.T.) ;
#749=EDGE_CURVE('',#748,#705,#746,.F.) ;
#756=EDGE_CURVE('',#755,#712,#753,.F.) ;
#761=EDGE_CURVE('',#755,#748,#760,.F.) ;
#773=EDGE_CURVE('',#748,#755,#772,.F.) ;
#792=EDGE_CURVE('',#791,#748,#789,.T.) ;
#799=EDGE_CURVE('',#798,#755,#796,.T.) ;
#804=EDGE_CURVE('',#798,#791,#803,.T.) ;
#816=EDGE_CURVE('',#791,#798,#815,.T.) ;
#835=EDGE_CURVE('',#834,#791,#832,.T.) ;
#842=EDGE_CURVE('',#841,#798,#839,.T.) ;
#847=EDGE_CURVE('',#841,#834,#846,.T.) ;
#859=EDGE_CURVE('',#834,#841,#858,.T.) ;
#873=EDGE_CURVE('',#872,#834,#870,.T.) ;
#880=EDGE_CURVE('',#879,#841,#877,.T.) ;
#885=EDGE_CURVE('',#879,#872,#884,.T.) ;
#897=EDGE_CURVE('',#872,#879,#896,.T.) ;
#922=EDGE_CURVE('',#919,#921,#917,.T.) ;
#927=EDGE_CURVE('',#921,#919,#926,.T.) ;
#944=EDGE_CURVE('',#943,#919,#941,.F.) ;
#951=EDGE_CURVE('',#950,#921,#948,.F.) ;
#956=EDGE_CURVE('',#950,#943,#955,.T.) ;
#968=EDGE_CURVE('',#943,#950,#967,.T.) ;
#993=EDGE_CURVE('',#990,#992,#988,.T.) ;
#998=EDGE_CURVE('',#992,#990,#997,.T.) ;
#1017=EDGE_CURVE('',#1014,#1016,#1012,.F.) ;
#1022=EDGE_CURVE('',#1014,#990,#1021,.F.) ;
#1027=EDGE_CURVE('',#1016,#992,#1026,.F.) ;
#1039=EDGE_CURVE('',#1016,#1014,#1038,.F.) ;
#1060=EDGE_CURVE('',#1057,#1059,#1055,.T.) ;
#1067=EDGE_CURVE('',#1066,#1059,#1064,.T.) ;
#1074=EDGE_CURVE('',#1073,#1066,#1071,.T.) ;
#1079=EDGE_CURVE('',#1073,#1057,#1078,.T.) ;
#1096=EDGE_CURVE('',#1057,#1073,#1095,.T.) ;
#1106=EDGE_CURVE('',#1059,#1066,#1105,.T.) ;
#1125=EDGE_CURVE('',#1066,#1124,#1122,.T.) ;
#1132=EDGE_CURVE('',#1059,#1131,#1129,.T.) ;
#1137=EDGE_CURVE('',#1131,#1124,#1136,.F.) ;
#1149=EDGE_CURVE('',#1124,#1131,#1148,.F.) ;
#1170=EDGE_CURVE('',#1167,#1169,#1165,.F.) ;
#1177=EDGE_CURVE('',#1176,#1169,#1174,.F.) ;
#1182=EDGE_CURVE('',#1176,#1167,#1181,.T.) ;
#1193=EDGE_CURVE('',#1167,#1176,#1192,.T.) ;
#1213=EDGE_CURVE('',#1210,#1212,#1208,.T.) ;
#1220=EDGE_CURVE('',#1210,#1219,#1217,.T.) ;
#1227=EDGE_CURVE('',#1219,#1226,#1224,.T.) ;
#1234=EDGE_CURVE('',#1233,#1226,#1231,.T.) ;
#1241=EDGE_CURVE('',#1240,#1233,#1238,.T.) ;
#1246=EDGE_CURVE('',#1212,#1240,#1245,.T.) ;
#1269=EDGE_CURVE('',#1266,#1268,#1264,.T.) ;
#1275=EDGE_CURVE('',#1266,#1212,#1270,.T.) ;
#1280=EDGE_CURVE('',#1240,#1268,#1279,.F.) ;
#1294=EDGE_CURVE('',#1268,#1293,#1291,.T.) ;
#1300=EDGE_CURVE('',#1293,#1233,#1295,.T.) ;
#1319=EDGE_CURVE('',#1226,#1318,#1316,.T.) ;
#1324=EDGE_CURVE('',#1293,#1318,#1323,.T.) ;
#1338=EDGE_CURVE('',#1337,#1219,#1335,.T.) ;
#1343=EDGE_CURVE('',#1337,#1318,#1342,.T.) ;
#1357=EDGE_CURVE('',#1210,#1356,#1354,.F.) ;
#1362=EDGE_CURVE('',#1356,#1337,#1361,.T.) ;
#1374=EDGE_CURVE('',#1356,#1266,#1373,.T.) ;
#1390=EDGE_CURVE('',#1387,#1389,#1385,.T.) ;
#1397=EDGE_CURVE('',#1389,#1396,#1394,.T.) ;
#1404=EDGE_CURVE('',#1403,#1396,#1401,.T.) ;
#1411=EDGE_CURVE('',#1410,#1403,#1408,.T.) ;
#1418=EDGE_CURVE('',#1417,#1410,#1415,.T.) ;
#1423=EDGE_CURVE('',#1387,#1417,#1422,.T.) ;
#1444=EDGE_CURVE('',#1387,#1443,#1441,.T.) ;
#1454=EDGE_CURVE('',#1453,#1417,#1445,.T.) ;
#1459=EDGE_CURVE('',#1443,#1453,#1458,.T.) ;
#1473=EDGE_CURVE('',#1453,#1472,#1470,.T.) ;
#1478=EDGE_CURVE('',#1410,#1472,#1477,.F.) ;
#1492=EDGE_CURVE('',#1472,#1491,#1489,.T.) ;
#1498=EDGE_CURVE('',#1491,#1403,#1493,.T.) ;
#1512=EDGE_CURVE('',#1396,#1511,#1509,.T.) ;
#1517=EDGE_CURVE('',#1491,#1511,#1516,.T.) ;
#1531=EDGE_CURVE('',#1530,#1389,#1528,.T.) ;
#1536=EDGE_CURVE('',#1530,#1511,#1535,.T.) ;
#1548=EDGE_CURVE('',#1443,#1530,#1547,.T.) ;
#1567=EDGE_CURVE('',#1167,#1566,#1564,.T.) ;
#1574=EDGE_CURVE('',#1176,#1573,#1571,.T.) ;
#1579=EDGE_CURVE('',#1573,#1566,#1578,.T.) ;
#1591=EDGE_CURVE('',#1566,#1573,#1590,.T.) ;
#85=EDGE_LOOP('',(#86,#87,#88,#89)) ;
#116=EDGE_LOOP('',(#117,#118,#119,#120)) ;
#147=EDGE_LOOP('',(#148,#149,#150,#151)) ;
#164=EDGE_LOOP('',(#165,#166,#167,#168)) ;
#181=EDGE_LOOP('',(#182,#183,#184,#185)) ;
#221=EDGE_LOOP('',(#222,#223,#224,#225)) ;
#252=EDGE_LOOP('',(#253,#254,#255,#256)) ;
#283=EDGE_LOOP('',(#284,#285,#286,#287)) ;
#305=EDGE_LOOP('',(#306,#307,#308,#309)) ;
#345=EDGE_LOOP('',(#346,#347,#348,#349)) ;
#371=EDGE_LOOP('',(#372,#373,#374,#375)) ;
#402=EDGE_LOOP('',(#403,#404,#405,#406)) ;
#419=EDGE_LOOP('',(#420,#421,#422,#423)) ;
#454=EDGE_LOOP('',(#455,#456,#457,#458)) ;
#485=EDGE_LOOP('',(#486,#487,#488,#489)) ;
#511=EDGE_LOOP('',(#512,#513,#514,#515)) ;
#533=EDGE_LOOP('',(#534,#535,#536,#537)) ;
#568=EDGE_LOOP('',(#569,#570,#571,#572)) ;
#594=EDGE_LOOP('',(#595,#596,#597,#598)) ;
#620=EDGE_LOOP('',(#621,#622,#623,#624)) ;
#637=EDGE_LOOP('',(#638,#639,#640,#641)) ;
#649=EDGE_LOOP('',(#650,#651,#652,#653)) ;
#669=EDGE_LOOP('',(#670,#671)) ;
#674=EDGE_LOOP('',(#675,#676,#677,#678)) ;
#681=EDGE_LOOP('',(#682,#683,#684,#685)) ;
#688=EDGE_LOOP('',(#689,#690,#691,#692)) ;
#719=EDGE_LOOP('',(#720,#721,#722,#723)) ;
#731=EDGE_LOOP('',(#732,#733,#734,#735)) ;
#762=EDGE_LOOP('',(#763,#764,#765,#766)) ;
#774=EDGE_LOOP('',(#775,#776,#777,#778)) ;
#805=EDGE_LOOP('',(#806,#807,#808,#809)) ;
#817=EDGE_LOOP('',(#818,#819,#820,#821)) ;
#848=EDGE_LOOP('',(#849,#850,#851,#852)) ;
#860=EDGE_LOOP('',(#861,#862,#863,#864)) ;
#886=EDGE_LOOP('',(#887,#888,#889,#890)) ;
#898=EDGE_LOOP('',(#899,#900,#901,#902)) ;
#910=EDGE_LOOP('',(#911,#912)) ;
#928=EDGE_LOOP('',(#929,#930)) ;
#957=EDGE_LOOP('',(#958,#959,#960,#961)) ;
#969=EDGE_LOOP('',(#970,#971,#972,#973)) ;
#981=EDGE_LOOP('',(#982,#983)) ;
#999=EDGE_LOOP('',(#1000,#1001)) ;
#1028=EDGE_LOOP('',(#1029,#1030,#1031,#1032)) ;
#1040=EDGE_LOOP('',(#1041,#1042,#1043,#1044)) ;
#1080=EDGE_LOOP('',(#1081,#1082,#1083,#1084)) ;
#1097=EDGE_LOOP('',(#1098,#1099)) ;
#1107=EDGE_LOOP('',(#1108,#1109,#1110,#1111)) ;
#1138=EDGE_LOOP('',(#1139,#1140,#1141,#1142)) ;
#1150=EDGE_LOOP('',(#1151,#1152,#1153,#1154)) ;
#1183=EDGE_LOOP('',(#1184,#1185,#1186)) ;
#1194=EDGE_LOOP('',(#1195,#1196,#1197)) ;
#1247=EDGE_LOOP('',(#1248,#1249,#1250,#1251,#1252,#1253)) ;
#1281=EDGE_LOOP('',(#1282,#1283,#1284,#1285)) ;
#1301=EDGE_LOOP('',(#1302,#1303,#1304,#1305)) ;
#1325=EDGE_LOOP('',(#1326,#1327,#1328,#1329)) ;
#1344=EDGE_LOOP('',(#1345,#1346,#1347,#1348)) ;
#1363=EDGE_LOOP('',(#1364,#1365,#1366,#1367)) ;
#1375=EDGE_LOOP('',(#1376,#1377,#1378,#1379)) ;
#1424=EDGE_LOOP('',(#1425,#1426,#1427,#1428,#1429,#1430)) ;
#1460=EDGE_LOOP('',(#1461,#1462,#1463,#1464)) ;
#1479=EDGE_LOOP('',(#1480,#1481,#1482,#1483)) ;
#1499=EDGE_LOOP('',(#1500,#1501,#1502,#1503)) ;
#1518=EDGE_LOOP('',(#1519,#1520,#1521,#1522)) ;
#1537=EDGE_LOOP('',(#1538,#1539,#1540,#1541)) ;
#1549=EDGE_LOOP('',(#1550,#1551,#1552,#1553)) ;
#1580=EDGE_LOOP('',(#1581,#1582,#1583,#1584)) ;
#1592=EDGE_LOOP('',(#1593,#1594,#1595,#1596)) ;
#1604=EDGE_LOOP('',(#1605,#1606)) ;
#1608=EDGE_LOOP('',(#1609,#1610)) ;
#1612=EDGE_LOOP('',(#1613,#1614,#1615,#1616,#1617,#1618)) ;
#1620=EDGE_LOOP('',(#1621,#1622,#1623,#1624,#1625,#1626)) ;
#1634=EDGE_LOOP('',(#1635,#1636,#1637,#1638)) ;
#1640=EDGE_LOOP('',(#1641,#1642,#1643,#1644)) ;
#1646=EDGE_LOOP('',(#1647,#1648,#1649,#1650)) ;
#1652=EDGE_LOOP('',(#1653,#1654,#1655,#1656)) ;
#1658=EDGE_LOOP('',(#1659,#1660,#1661,#1662)) ;
#1664=EDGE_LOOP('',(#1665,#1666)) ;
#90=FACE_OUTER_BOUND('',#85,.T.) ;
#121=FACE_OUTER_BOUND('',#116,.T.) ;
#152=FACE_OUTER_BOUND('',#147,.T.) ;
#169=FACE_OUTER_BOUND('',#164,.T.) ;
#186=FACE_OUTER_BOUND('',#181,.T.) ;
#226=FACE_OUTER_BOUND('',#221,.T.) ;
#257=FACE_OUTER_BOUND('',#252,.T.) ;
#288=FACE_OUTER_BOUND('',#283,.T.) ;
#310=FACE_OUTER_BOUND('',#305,.T.) ;
#350=FACE_OUTER_BOUND('',#345,.T.) ;
#376=FACE_OUTER_BOUND('',#371,.T.) ;
#407=FACE_OUTER_BOUND('',#402,.T.) ;
#424=FACE_OUTER_BOUND('',#419,.T.) ;
#459=FACE_OUTER_BOUND('',#454,.T.) ;
#490=FACE_OUTER_BOUND('',#485,.T.) ;
#516=FACE_OUTER_BOUND('',#511,.T.) ;
#538=FACE_OUTER_BOUND('',#533,.T.) ;
#573=FACE_OUTER_BOUND('',#568,.T.) ;
#599=FACE_OUTER_BOUND('',#594,.T.) ;
#625=FACE_OUTER_BOUND('',#620,.T.) ;
#642=FACE_OUTER_BOUND('',#637,.T.) ;
#654=FACE_OUTER_BOUND('',#649,.T.) ;
#679=FACE_OUTER_BOUND('',#674,.T.) ;
#686=FACE_OUTER_BOUND('',#681,.T.) ;
#693=FACE_OUTER_BOUND('',#688,.T.) ;
#724=FACE_OUTER_BOUND('',#719,.T.) ;
#736=FACE_OUTER_BOUND('',#731,.T.) ;
#767=FACE_OUTER_BOUND('',#762,.T.) ;
#779=FACE_OUTER_BOUND('',#774,.T.) ;
#810=FACE_OUTER_BOUND('',#805,.T.) ;
#822=FACE_OUTER_BOUND('',#817,.T.) ;
#853=FACE_OUTER_BOUND('',#848,.T.) ;
#865=FACE_OUTER_BOUND('',#860,.T.) ;
#891=FACE_OUTER_BOUND('',#886,.T.) ;
#903=FACE_OUTER_BOUND('',#898,.T.) ;
#913=FACE_OUTER_BOUND('',#910,.T.) ;
#962=FACE_OUTER_BOUND('',#957,.T.) ;
#974=FACE_OUTER_BOUND('',#969,.T.) ;
#984=FACE_OUTER_BOUND('',#981,.T.) ;
#1033=FACE_OUTER_BOUND('',#1028,.T.) ;
#1045=FACE_OUTER_BOUND('',#1040,.T.) ;
#1085=FACE_OUTER_BOUND('',#1080,.T.) ;
#1100=FACE_OUTER_BOUND('',#1097,.T.) ;
#1112=FACE_OUTER_BOUND('',#1107,.T.) ;
#1143=FACE_OUTER_BOUND('',#1138,.T.) ;
#1155=FACE_OUTER_BOUND('',#1150,.T.) ;
#1187=FACE_OUTER_BOUND('',#1183,.T.) ;
#1198=FACE_OUTER_BOUND('',#1194,.T.) ;
#1254=FACE_OUTER_BOUND('',#1247,.T.) ;
#1286=FACE_OUTER_BOUND('',#1281,.T.) ;
#1306=FACE_OUTER_BOUND('',#1301,.T.) ;
#1330=FACE_OUTER_BOUND('',#1325,.T.) ;
#1349=FACE_OUTER_BOUND('',#1344,.T.) ;
#1368=FACE_OUTER_BOUND('',#1363,.T.) ;
#1380=FACE_OUTER_BOUND('',#1375,.T.) ;
#1431=FACE_OUTER_BOUND('',#1424,.T.) ;
#1465=FACE_OUTER_BOUND('',#1460,.T.) ;
#1484=FACE_OUTER_BOUND('',#1479,.T.) ;
#1504=FACE_OUTER_BOUND('',#1499,.T.) ;
#1523=FACE_OUTER_BOUND('',#1518,.T.) ;
#1542=FACE_OUTER_BOUND('',#1537,.T.) ;
#1554=FACE_OUTER_BOUND('',#1549,.T.) ;
#1585=FACE_OUTER_BOUND('',#1580,.T.) ;
#1597=FACE_OUTER_BOUND('',#1592,.T.) ;
#1607=FACE_OUTER_BOUND('',#1604,.T.) ;
#1639=FACE_OUTER_BOUND('',#1634,.T.) ;
#45=UNCERTAINTY_MEASURE_WITH_UNIT(LENGTH_MEASURE(0.005),#41,'distance_accuracy_value','CONFUSED CURVE UNCERTAINTY') ;
#60=LINE('Line',#57,#59) ;
#69=LINE('Line',#66,#68) ;
#76=LINE('Line',#73,#75) ;
#83=LINE('Line',#80,#82) ;
#100=LINE('Line',#97,#99) ;
#109=LINE('Line',#106,#108) ;
#114=LINE('Line',#111,#113) ;
#131=LINE('Line',#128,#130) ;
#138=LINE('Line',#135,#137) ;
#145=LINE('Line',#142,#144) ;
#162=LINE('Line',#159,#161) ;
#179=LINE('Line',#176,#178) ;
#196=LINE('Line',#193,#195) ;
#205=LINE('Line',#202,#204) ;
#212=LINE('Line',#209,#211) ;
#219=LINE('Line',#216,#218) ;
#236=LINE('Line',#233,#235) ;
#243=LINE('Line',#240,#242) ;
#250=LINE('Line',#247,#249) ;
#267=LINE('Line',#264,#266) ;
#274=LINE('Line',#271,#273) ;
#281=LINE('Line',#278,#280) ;
#298=LINE('Line',#295,#297) ;
#303=LINE('Line',#300,#302) ;
#320=LINE('Line',#317,#319) ;
#329=LINE('Line',#326,#328) ;
#336=LINE('Line',#333,#335) ;
#343=LINE('Line',#340,#342) ;
#355=LINE('Line',#352,#354) ;
#362=LINE('Line',#359,#361) ;
#369=LINE('Line',#366,#368) ;
#386=LINE('Line',#383,#385) ;
#393=LINE('Line',#390,#392) ;
#400=LINE('Line',#397,#399) ;
#412=LINE('Line',#409,#411) ;
#417=LINE('Line',#414,#416) ;
#429=LINE('Line',#426,#428) ;
#438=LINE('Line',#435,#437) ;
#445=LINE('Line',#442,#444) ;
#452=LINE('Line',#449,#451) ;
#469=LINE('Line',#466,#468) ;
#476=LINE('Line',#473,#475) ;
#483=LINE('Line',#480,#482) ;
#495=LINE('Line',#492,#494) ;
#502=LINE('Line',#499,#501) ;
#509=LINE('Line',#506,#508) ;
#526=LINE('Line',#523,#525) ;
#531=LINE('Line',#528,#530) ;
#543=LINE('Line',#540,#542) ;
#552=LINE('Line',#549,#551) ;
#559=LINE('Line',#556,#558) ;
#566=LINE('Line',#563,#565) ;
#578=LINE('Line',#575,#577) ;
#585=LINE('Line',#582,#584) ;
#592=LINE('Line',#589,#591) ;
#604=LINE('Line',#601,#603) ;
#611=LINE('Line',#608,#610) ;
#618=LINE('Line',#615,#617) ;
#630=LINE('Line',#627,#629) ;
#635=LINE('Line',#632,#634) ;
#703=LINE('Line',#700,#702) ;
#710=LINE('Line',#707,#709) ;
#746=LINE('Line',#743,#745) ;
#753=LINE('Line',#750,#752) ;
#789=LINE('Line',#786,#788) ;
#796=LINE('Line',#793,#795) ;
#832=LINE('Line',#829,#831) ;
#839=LINE('Line',#836,#838) ;
#870=LINE('Line',#867,#869) ;
#877=LINE('Line',#874,#876) ;
#941=LINE('Line',#938,#940) ;
#948=LINE('Line',#945,#947) ;
#1021=LINE('Line',#1018,#1020) ;
#1026=LINE('Line',#1023,#1025) ;
#1055=LINE('Line',#1052,#1054) ;
#1071=LINE('Line',#1068,#1070) ;
#1122=LINE('Line',#1119,#1121) ;
#1129=LINE('Line',#1126,#1128) ;
#1165=LINE('Line',#1162,#1164) ;
#1174=LINE('Line',#1171,#1173) ;
#1208=LINE('Line',#1205,#1207) ;
#1231=LINE('Line',#1228,#1230) ;
#1279=LINE('Line',#1276,#1278) ;
#1316=LINE('Line',#1313,#1315) ;
#1323=LINE('Line',#1320,#1322) ;
#1335=LINE('Line',#1332,#1334) ;
#1354=LINE('Line',#1351,#1353) ;
#1373=LINE('Line',#1370,#1372) ;
#1401=LINE('Line',#1398,#1400) ;
#1422=LINE('Line',#1419,#1421) ;
#1441=LINE('Line',#1438,#1440) ;
#1458=LINE('Line',#1455,#1457) ;
#1477=LINE('Line',#1474,#1476) ;
#1509=LINE('Line',#1506,#1508) ;
#1516=LINE('Line',#1513,#1515) ;
#1528=LINE('Line',#1525,#1527) ;
#1564=LINE('Line',#1561,#1563) ;
#1571=LINE('Line',#1568,#1570) ;
#2=MECHANICAL_CONTEXT(' ',#1,'mechanical') ;
#24=PERSONAL_ADDRESS(' ',' ',' ',' ',' ',' ',' ',' ',' ',' ',' ',' ',(#22),' ') ;
#56=PLANE('Plane',#55) ;
#96=PLANE('Plane',#95) ;
#127=PLANE('Plane',#126) ;
#158=PLANE('Plane',#157) ;
#175=PLANE('Plane',#174) ;
#192=PLANE('Plane',#191) ;
#232=PLANE('Plane',#231) ;
#263=PLANE('Plane',#262) ;
#294=PLANE('Plane',#293) ;
#316=PLANE('Plane',#315) ;
#382=PLANE('Plane',#381) ;
#465=PLANE('Plane',#464) ;
#522=PLANE('Plane',#521) ;
#648=PLANE('Plane',#647) ;
#909=PLANE('Plane',#908) ;
#980=PLANE('Plane',#979) ;
#1091=PLANE('Plane',#1090) ;
#1204=PLANE('Plane',#1203) ;
#1312=PLANE('Plane',#1311) ;
#1437=PLANE('Plane',#1436) ;
#1603=PLANE('Plane',#1602) ;
#1633=PLANE('Plane',#1632) ;
#43=PLANE_ANGLE_MEASURE_WITH_UNIT(PLANE_ANGLE_MEASURE(0.0174532925199),#42) ;
#7=PRODUCT_CATEGORY('part',$) ;
#9=PRODUCT_CATEGORY_RELATIONSHIP(' ',' ',#7,#8) ;
#6=PRODUCT_DEFINITION_FORMATION_WITH_SPECIFIED_SOURCE('',' ',#5,.NOT_KNOWN.) ;
#8=PRODUCT_RELATED_PRODUCT_CATEGORY('detail',$,(#5)) ;
#50=SHAPE_DEFINITION_REPRESENTATION(#40,#49) ;
#62=VERTEX_POINT('',#61) ;
#64=VERTEX_POINT('',#63) ;
#71=VERTEX_POINT('',#70) ;
#78=VERTEX_POINT('',#77) ;
#102=VERTEX_POINT('',#101) ;
#104=VERTEX_POINT('',#103) ;
#133=VERTEX_POINT('',#132) ;
#140=VERTEX_POINT('',#139) ;
#198=VERTEX_POINT('',#197) ;
#200=VERTEX_POINT('',#199) ;
#207=VERTEX_POINT('',#206) ;
#214=VERTEX_POINT('',#213) ;
#238=VERTEX_POINT('',#237) ;
#245=VERTEX_POINT('',#244) ;
#269=VERTEX_POINT('',#268) ;
#276=VERTEX_POINT('',#275) ;
#322=VERTEX_POINT('',#321) ;
#324=VERTEX_POINT('',#323) ;
#331=VERTEX_POINT('',#330) ;
#338=VERTEX_POINT('',#337) ;
#357=VERTEX_POINT('',#356) ;
#364=VERTEX_POINT('',#363) ;
#388=VERTEX_POINT('',#387) ;
#395=VERTEX_POINT('',#394) ;
#431=VERTEX_POINT('',#430) ;
#433=VERTEX_POINT('',#432) ;
#440=VERTEX_POINT('',#439) ;
#447=VERTEX_POINT('',#446) ;
#471=VERTEX_POINT('',#470) ;
#478=VERTEX_POINT('',#477) ;
#497=VERTEX_POINT('',#496) ;
#504=VERTEX_POINT('',#503) ;
#545=VERTEX_POINT('',#544) ;
#547=VERTEX_POINT('',#546) ;
#554=VERTEX_POINT('',#553) ;
#561=VERTEX_POINT('',#560) ;
#580=VERTEX_POINT('',#579) ;
#587=VERTEX_POINT('',#586) ;
#606=VERTEX_POINT('',#605) ;
#613=VERTEX_POINT('',#612) ;
#660=VERTEX_POINT('',#659) ;
#662=VERTEX_POINT('',#661) ;
#705=VERTEX_POINT('',#704) ;
#712=VERTEX_POINT('',#711) ;
#748=VERTEX_POINT('',#747) ;
#755=VERTEX_POINT('',#754) ;
#791=VERTEX_POINT('',#790) ;
#798=VERTEX_POINT('',#797) ;
#834=VERTEX_POINT('',#833) ;
#841=VERTEX_POINT('',#840) ;
#872=VERTEX_POINT('',#871) ;
#879=VERTEX_POINT('',#878) ;
#919=VERTEX_POINT('',#918) ;
#921=VERTEX_POINT('',#920) ;
#943=VERTEX_POINT('',#942) ;
#950=VERTEX_POINT('',#949) ;
#990=VERTEX_POINT('',#989) ;
#992=VERTEX_POINT('',#991) ;
#1014=VERTEX_POINT('',#1013) ;
#1016=VERTEX_POINT('',#1015) ;
#1057=VERTEX_POINT('',#1056) ;
#1059=VERTEX_POINT('',#1058) ;
#1066=VERTEX_POINT('',#1065) ;
#1073=VERTEX_POINT('',#1072) ;
#1124=VERTEX_POINT('',#1123) ;
#1131=VERTEX_POINT('',#1130) ;
#1167=VERTEX_POINT('',#1166) ;
#1169=VERTEX_POINT('',#1168) ;
#1176=VERTEX_POINT('',#1175) ;
#1210=VERTEX_POINT('',#1209) ;
#1212=VERTEX_POINT('',#1211) ;
#1219=VERTEX_POINT('',#1218) ;
#1226=VERTEX_POINT('',#1225) ;
#1233=VERTEX_POINT('',#1232) ;
#1240=VERTEX_POINT('',#1239) ;
#1266=VERTEX_POINT('',#1265) ;
#1268=VERTEX_POINT('',#1267) ;
#1293=VERTEX_POINT('',#1292) ;
#1318=VERTEX_POINT('',#1317) ;
#1337=VERTEX_POINT('',#1336) ;
#1356=VERTEX_POINT('',#1355) ;
#1387=VERTEX_POINT('',#1386) ;
#1389=VERTEX_POINT('',#1388) ;
#1396=VERTEX_POINT('',#1395) ;
#1403=VERTEX_POINT('',#1402) ;
#1410=VERTEX_POINT('',#1409) ;
#1417=VERTEX_POINT('',#1416) ;
#1443=VERTEX_POINT('',#1442) ;
#1453=VERTEX_POINT('',#1452) ;
#1472=VERTEX_POINT('',#1471) ;
#1491=VERTEX_POINT('',#1490) ;
#1511=VERTEX_POINT('',#1510) ;
#1530=VERTEX_POINT('',#1529) ;
#1566=VERTEX_POINT('',#1565) ;
#1573=VERTEX_POINT('',#1572) ;
#41=(LENGTH_UNIT()NAMED_UNIT(*)SI_UNIT(.MILLI.,.METRE.)) ;
#42=(NAMED_UNIT(*)PLANE_ANGLE_UNIT()SI_UNIT($,.RADIAN.)) ;
#44=(NAMED_UNIT(*)SI_UNIT($,.STERADIAN.)SOLID_ANGLE_UNIT()) ;
#46=(GEOMETRIC_REPRESENTATION_CONTEXT(3)GLOBAL_UNCERTAINTY_ASSIGNED_CONTEXT((#45))GLOBAL_UNIT_ASSIGNED_CONTEXT((#41,#42,#44))REPRESENTATION_CONTEXT(' ',' ')) ;
ENDSEC;
END-ISO-10303-21;
